<svg viewBox="0 0 27 28" xmlns="http://www.w3.org/2000/svg"><path d="M2.491 2.553c.654-.317 1.118-.17 1.547.277a14816.06 14816.06 0 0020.673 21.3c.547.563.556 1.22.027 1.761-.53.541-1.173.53-1.72-.033A33731.233 33731.233 0 002.332 4.573c-.431-.444-.572-.92-.263-1.587l.422-.433z"/><path d="M24.543 2.592c-.653-.317-1.117-.17-1.546.277A12803.575 12803.575 0 012.325 24.17c-.546.563-.556 1.22-.026 1.761.53.541 1.172.528 1.719-.033C10.91 18.8 17.806 11.705 24.704 4.613c.432-.444.572-.92.263-1.588l-.424-.433z"/></svg>