<svg xmlns="http://www.w3.org/2000/svg" xmlns:xlink="http://www.w3.org/1999/xlink"><defs><symbol viewBox="0 0 330 330" id="icon-arrow-down">
<path d="M325.607,79.393c-5.857-5.857-15.355-5.858-21.213,0.001l-139.39,139.393L25.607,79.393
	c-5.857-5.857-15.355-5.858-21.213,0.001c-5.858,5.858-5.858,15.355,0,21.213l150.004,150c2.813,2.813,6.628,4.393,10.606,4.393
	s7.794-1.581,10.606-4.394l149.996-150C331.465,94.749,331.465,85.251,325.607,79.393z" />
</symbol><symbol viewBox="0 0 256 256" id="icon-arrow-left">
	<g transform="translate(1.4065934065934016 1.4065934065934016) scale(2.81 2.81)">
		<path d="M 65.75 90 c 0.896 0 1.792 -0.342 2.475 -1.025 c 1.367 -1.366 1.367 -3.583 0 -4.949 L 29.2 45 L 68.225 5.975 c 1.367 -1.367 1.367 -3.583 0 -4.95 c -1.367 -1.366 -3.583 -1.366 -4.95 0 l -41.5 41.5 c -1.367 1.366 -1.367 3.583 0 4.949 l 41.5 41.5 C 63.958 89.658 64.854 90 65.75 90 z" />
	</g>
</symbol><symbol viewBox="0 0 50 40" id="icon-burger">
    <rect x="5" y="8" width="40" height="4" rx="2.5" ry="2.5" />
    <rect x="5" y="18" width="40" height="4" rx="2.5" ry="2.5" />
    <rect x="5" y="28" width="40" height="4" rx="2.5" ry="2.5" />
</symbol><symbol viewBox="0 0 27 28" id="icon-close">
<path d="M2.49145 2.55321C3.14526 2.23577 3.60883 2.383 4.03834 2.82981C10.9227 9.93733 17.8136 17.0375 24.7112 24.1302C25.2579 24.6928 25.267 25.3498 24.7378 25.8911C24.2086 26.4324 23.5647 26.4204 23.0181 25.8579C16.126 18.76 9.23065 11.665 2.33194 4.57279C1.90077 4.12938 1.75954 3.65364 2.06859 2.98555L2.49145 2.55321Z" />
<path d="M24.5434 2.59227C23.8896 2.27483 23.4261 2.42206 22.9974 2.86887C16.1147 9.97752 9.22407 17.0779 2.32537 24.1701C1.77872 24.7327 1.76875 25.3897 2.29878 25.931C2.82881 26.4723 3.471 26.4595 4.01764 25.8978C10.9108 18.7999 17.8062 11.7049 24.7038 4.6127C25.1358 4.1693 25.2762 3.6927 24.9671 3.02547L24.5434 2.59227Z" />
</symbol><symbol viewBox="0 0 24 24" id="icon-search">
<path d="M17.0392 15.6244C18.2714 14.084 19.0082 12.1301 19.0082 10.0041C19.0082 5.03127 14.9769 1 10.0041 1C5.03127 1 1 5.03127 1 10.0041C1 14.9769 5.03127 19.0082 10.0041 19.0082C12.1301 19.0082 14.084 18.2714 15.6244 17.0392L21.2921 22.707C21.6828 23.0977 22.3163 23.0977 22.707 22.707C23.0977 22.3163 23.0977 21.6828 22.707 21.2921L17.0392 15.6244ZM10.0041 17.0173C6.1308 17.0173 2.99087 13.8774 2.99087 10.0041C2.99087 6.1308 6.1308 2.99087 10.0041 2.99087C13.8774 2.99087 17.0173 6.1308 17.0173 10.0041C17.0173 13.8774 13.8774 17.0173 10.0041 17.0173Z" />
</symbol></defs></svg>