<?xml version="1.0" standalone="no"?>
<!DOCTYPE svg PUBLIC "-//W3C//DTD SVG 20010904//EN"
 "http://www.w3.org/TR/2001/REC-SVG-20010904/DTD/svg10.dtd">
<svg version="1.0" xmlns="http://www.w3.org/2000/svg"
 width="2160.000000pt" height="2160.000000pt" viewBox="0 0 2160.000000 2160.000000"
 preserveAspectRatio="xMidYMid meet">
<metadata>
Created by potrace 1.14, written by Peter Selinger 2001-2017
</metadata>
<g transform="translate(0.000000,2160.000000) scale(0.100000,-0.100000)"
fill="#000000" stroke="none">
<path d="M7785 21013 c-4 -10 -9 -13 -11 -7 -3 7 -21 8 -56 3 -28 -5 -55 -6
-60 -3 -4 3 -8 0 -8 -6 0 -6 -4 -9 -8 -6 -5 3 -20 -1 -35 -9 -14 -7 -28 -11
-31 -8 -3 3 -8 -2 -12 -11 -3 -9 -10 -13 -16 -10 -5 3 -16 -2 -24 -12 -9 -11
-13 -13 -9 -7 4 9 1 11 -9 7 -9 -3 -13 -10 -10 -15 3 -5 -2 -9 -11 -9 -10 0
-13 -5 -9 -12 5 -8 0 -7 -11 2 -11 9 -16 10 -11 3 4 -8 1 -13 -9 -13 -9 0 -14
-4 -10 -9 6 -11 -29 -34 -38 -24 -4 3 -5 -4 -2 -15 3 -16 0 -19 -13 -15 -9 3
-14 3 -11 -1 7 -8 -50 -72 -62 -69 -4 1 -4 -7 -1 -19 4 -17 2 -20 -12 -15 -12
5 -16 2 -14 -11 2 -10 -2 -16 -11 -14 -8 2 -11 -3 -8 -10 5 -15 -18 -40 -28
-30 -4 4 -5 3 -4 -3 2 -5 -2 -20 -9 -31 -6 -12 -8 -25 -4 -29 4 -5 1 -5 -6 -1
-8 5 -16 -2 -22 -18 -5 -14 -14 -26 -19 -26 -6 0 -8 -7 -5 -15 4 -8 1 -15 -6
-15 -7 0 -10 -7 -6 -16 3 -8 2 -12 -4 -9 -6 3 -14 -5 -19 -18 -6 -14 -15 -27
-21 -29 -7 -2 -13 -15 -13 -30 -1 -14 -5 -26 -9 -25 -3 1 -7 -2 -9 -8 -1 -5
-9 -16 -16 -23 -7 -7 -13 -20 -13 -28 0 -8 -4 -14 -10 -14 -5 0 -10 -9 -10
-20 0 -11 -9 -25 -20 -32 -21 -14 -28 -34 -7 -22 6 4 2 -3 -10 -15 -13 -12
-23 -28 -23 -37 0 -8 -7 -17 -15 -20 -8 -4 -12 -10 -9 -15 3 -5 1 -9 -5 -9 -6
0 -7 -7 -4 -17 4 -11 3 -14 -5 -9 -7 4 -12 1 -12 -8 0 -9 -4 -16 -10 -16 -5 0
-9 -3 -8 -7 2 -14 -15 -48 -31 -59 -8 -6 -12 -18 -8 -28 4 -9 3 -15 -2 -12 -5
3 -11 -4 -14 -15 -3 -12 -10 -18 -17 -14 -6 3 -10 3 -9 -2 4 -15 -22 -68 -38
-80 -11 -8 -12 -13 -4 -13 7 0 9 -5 6 -10 -4 -6 -11 -7 -17 -4 -7 5 -8 2 -3
-6 5 -8 1 -18 -10 -27 -11 -7 -15 -13 -11 -13 5 0 3 -7 -4 -15 -7 -8 -10 -15
-6 -15 3 0 -3 -9 -15 -21 -11 -11 -18 -27 -15 -35 3 -8 0 -13 -7 -11 -7 1 -11
-4 -9 -10 1 -7 -3 -13 -9 -13 -5 0 -7 -5 -4 -10 3 -6 -1 -13 -9 -16 -9 -3 -13
-10 -10 -15 3 -5 0 -9 -5 -9 -6 0 -10 -3 -9 -7 3 -17 -15 -42 -26 -36 -6 3 -8
3 -4 -2 4 -4 3 -14 -3 -22 -6 -7 -8 -13 -3 -13 5 0 3 -4 -4 -9 -7 -4 -14 -18
-15 -30 -1 -12 -6 -20 -12 -17 -7 2 -11 -7 -10 -25 1 -16 -2 -29 -6 -29 -4 0
-6 -11 -4 -25 1 -14 -1 -25 -5 -25 -4 0 -6 -15 -3 -32 2 -18 5 -42 5 -53 1
-11 7 -23 13 -27 6 -5 4 -8 -5 -8 -12 0 -12 -2 -2 -9 7 -4 14 -14 16 -22 1 -8
7 -24 14 -35 6 -12 8 -24 5 -28 -3 -3 2 -6 11 -6 13 0 16 -5 12 -17 -4 -10 -4
-14 0 -11 4 4 19 -6 34 -22 16 -17 33 -30 39 -30 6 0 11 -4 11 -8 0 -5 16 -14
35 -22 19 -8 35 -18 35 -22 0 -5 5 -6 11 -2 6 3 15 0 20 -7 5 -8 9 -9 9 -3 0
15 40 10 51 -7 5 -8 9 -9 9 -2 0 13 18 12 39 -1 10 -7 12 -6 6 4 -6 10 -4 12
8 7 10 -4 17 -1 17 6 0 8 3 8 9 -2 7 -11 11 -10 20 5 6 11 11 14 11 7 0 -7 7
-10 15 -7 8 4 13 10 10 14 -2 4 3 7 13 7 34 0 43 3 38 12 -3 5 1 12 10 15 10
4 13 2 8 -7 -4 -6 11 7 34 31 23 23 42 47 42 53 0 6 6 9 13 6 8 -3 14 1 15 9
1 8 3 21 4 29 1 8 8 17 15 19 8 3 11 10 8 16 -3 5 -1 10 5 10 6 0 16 14 21 30
6 17 15 30 20 30 5 0 8 3 7 8 -2 11 14 46 26 54 6 4 12 12 12 18 1 5 2 14 3
18 0 5 10 19 21 32 11 12 17 27 14 31 -3 5 2 9 11 9 9 0 14 4 11 9 -3 5 0 11
8 14 9 4 12 14 9 28 -4 13 -2 20 4 16 5 -3 15 10 22 29 7 18 17 34 22 34 6 0
7 5 4 10 -3 6 -1 10 4 10 6 0 11 6 11 14 0 7 7 19 15 26 8 7 12 16 9 21 -3 5
0 9 6 9 6 0 9 4 5 9 -3 6 2 14 11 19 9 5 15 12 15 15 -3 21 0 27 11 21 7 -5 9
-2 5 9 -3 9 0 18 9 21 8 3 14 15 14 26 0 11 5 20 11 20 5 0 7 5 4 10 -3 6 2
10 12 10 15 0 16 2 3 10 -10 6 -11 10 -2 10 6 0 12 6 12 13 0 8 9 22 20 32 10
9 19 20 18 24 -2 19 3 31 11 26 6 -3 8 4 6 16 -3 15 0 19 11 15 9 -3 12 -1 9
4 -3 6 0 10 7 10 9 0 9 3 -2 10 -10 7 -11 10 -2 10 7 0 16 8 19 18 4 9 13 23
20 30 7 8 11 18 8 23 -4 5 -1 9 5 9 6 0 8 5 4 12 -5 8 -2 9 10 5 13 -5 15 -2
12 18 -3 15 0 24 7 22 6 -1 12 4 13 11 1 6 2 17 3 23 0 5 6 7 11 4 6 -3 10 -1
10 4 0 6 9 3 20 -6 11 -10 20 -23 20 -30 0 -7 7 -13 16 -13 8 0 13 -4 9 -9 -3
-5 2 -16 10 -24 8 -9 15 -21 15 -27 0 -6 5 -8 10 -5 6 3 10 -1 10 -9 0 -9 5
-16 11 -16 6 0 9 -7 5 -15 -3 -9 0 -15 8 -15 7 0 20 -8 27 -17 10 -11 10 -14
2 -9 -7 4 -13 2 -13 -3 0 -6 6 -11 14 -11 8 0 18 -5 22 -12 5 -7 2 -9 -7 -4
-8 4 -3 -2 10 -13 13 -12 19 -21 15 -21 -5 0 -1 -5 9 -11 9 -5 17 -17 17 -24
0 -8 5 -15 11 -15 5 0 8 -4 5 -9 -3 -5 1 -11 9 -15 8 -3 15 -12 15 -20 0 -8 3
-16 8 -18 4 -2 21 -19 37 -38 17 -19 21 -28 10 -20 -11 8 -5 -2 13 -23 18 -21
29 -43 26 -49 -4 -6 -3 -8 3 -5 10 6 50 -43 44 -52 -2 -2 4 -8 13 -13 9 -5 16
-15 16 -21 0 -7 9 -19 19 -27 11 -7 18 -17 15 -22 -3 -4 2 -8 11 -8 9 0 13 -4
10 -10 -3 -5 -1 -10 5 -10 6 0 8 -4 5 -10 -3 -5 1 -10 10 -10 9 0 13 -5 10
-10 -3 -6 1 -13 9 -16 9 -3 16 -11 16 -18 0 -6 9 -18 20 -26 14 -10 16 -16 7
-22 -9 -6 -8 -8 3 -8 17 -1 76 -79 71 -95 -1 -5 0 -7 4 -3 8 7 35 -15 35 -28
0 -3 10 -15 22 -25 11 -11 18 -19 14 -19 -4 0 4 -10 17 -22 13 -13 22 -29 20
-36 -3 -8 1 -10 13 -5 14 5 16 3 11 -11 -4 -9 -3 -15 2 -12 5 3 12 -1 15 -10
3 -8 10 -12 16 -9 5 3 10 -1 10 -9 0 -10 9 -16 23 -16 18 0 19 -2 7 -10 -13
-8 -13 -10 -1 -10 8 0 26 -10 39 -22 14 -13 22 -17 18 -10 -4 6 -2 12 3 12 6
0 11 -5 11 -11 0 -5 8 -9 18 -7 11 2 27 -4 37 -12 15 -12 17 -12 10 -1 -6 11
-5 12 6 5 8 -5 22 -7 33 -5 13 2 16 -1 10 -11 -6 -10 -5 -11 8 -1 8 7 17 10
20 8 3 -3 18 0 34 6 16 7 41 11 56 10 16 -2 30 4 37 16 6 10 11 14 11 9 0 -5
9 -1 19 8 11 10 25 15 30 11 6 -3 11 -1 11 6 0 6 10 22 23 34 57 57 86 98 56
80 -6 -4 -5 2 3 14 7 12 16 21 21 21 4 0 5 5 2 10 -3 6 -2 10 3 10 5 0 8 11 7
25 -2 14 2 25 8 25 7 0 5 5 -3 10 -10 6 -11 10 -2 10 6 0 12 5 12 11 0 5 -5 7
-11 3 -8 -4 -8 -1 -1 13 6 11 7 25 2 33 -5 8 -5 21 0 31 7 12 5 21 -5 29 -8 7
-15 21 -15 31 0 11 -5 19 -11 19 -5 0 -8 4 -4 9 3 5 1 12 -5 16 -6 4 -7 11 -4
17 4 6 3 9 -2 6 -5 -3 -15 0 -22 8 -9 10 -10 14 -1 14 7 0 2 9 -11 20 -13 11
-27 20 -31 20 -5 0 -5 7 -2 17 5 12 3 14 -7 8 -10 -6 -12 -4 -7 8 4 10 2 16
-5 14 -7 -1 -17 8 -23 21 -5 12 -18 25 -28 28 -9 3 -15 10 -12 15 3 5 -8 22
-25 39 -17 17 -28 35 -25 40 6 9 -8 14 -28 11 -5 -1 -7 4 -5 11 3 7 -4 21 -14
30 -11 9 -20 20 -21 25 -1 4 -5 7 -9 6 -7 -3 -9 5 -7 23 0 3 -11 15 -25 28
-14 12 -26 25 -26 30 0 4 -7 14 -15 23 -8 8 -13 19 -10 24 4 5 -1 9 -9 9 -8 0
-18 9 -21 20 -3 11 -11 20 -16 20 -5 0 -9 7 -9 15 0 8 -4 15 -10 15 -5 0 -10
5 -10 10 0 6 -9 20 -20 32 -11 12 -20 28 -20 35 0 7 -9 17 -20 23 -11 6 -18
15 -15 21 4 5 -1 12 -9 15 -9 3 -16 12 -16 20 0 8 -5 14 -11 14 -5 0 -8 4 -5
9 3 5 -1 11 -9 15 -8 3 -15 13 -15 21 0 10 -5 13 -12 9 -8 -5 -9 -2 -5 9 4 11
1 17 -9 17 -8 0 -12 5 -9 10 3 6 1 10 -5 10 -6 0 -8 5 -5 10 3 6 -1 10 -10 10
-9 0 -14 4 -11 8 3 5 -9 24 -27 42 -18 19 -25 30 -17 26 8 -4 5 1 -7 12 -13
11 -23 25 -23 31 0 6 -9 16 -20 23 -11 7 -20 18 -20 25 0 7 -4 13 -10 13 -5 0
-10 6 -10 13 0 7 -9 19 -20 27 -11 8 -20 18 -20 23 0 4 -10 18 -22 31 -13 13
-48 51 -78 85 -30 33 -60 61 -66 61 -7 0 -15 7 -18 16 -3 8 -10 12 -16 9 -6
-3 -7 0 -4 9 4 11 0 14 -15 11 -13 -2 -22 3 -26 16 -4 10 -15 19 -26 19 -11 0
-22 7 -25 15 -4 8 -10 12 -15 9 -5 -3 -9 0 -9 6 0 6 -4 8 -10 5 -5 -3 -10 -1
-10 5 0 6 -5 8 -10 5 -6 -4 -17 -2 -24 4 -8 7 -18 11 -22 10 -23 -4 -35 2 -28
14 5 7 0 6 -11 -3 -10 -8 -16 -10 -12 -3 5 8 -2 11 -24 11 -17 -1 -34 4 -39
11 -5 9 -9 8 -15 -6z"/>
<path d="M7804 19682 c4 -7 -8 -10 -38 -9 -25 1 -44 -2 -43 -8 1 -5 -8 -9 -20
-9 -13 1 -23 -3 -23 -8 0 -5 -4 -6 -10 -3 -5 3 -10 1 -10 -5 0 -6 -4 -8 -10
-5 -5 3 -10 1 -10 -4 0 -6 -3 -10 -7 -10 -23 4 -43 -2 -38 -11 3 -5 -1 -10 -9
-10 -9 0 -16 -5 -16 -12 0 -6 -3 -8 -7 -5 -3 4 -13 -2 -20 -13 -8 -11 -20 -17
-26 -14 -7 4 -9 4 -5 0 4 -5 -9 -24 -28 -44 -19 -19 -32 -37 -30 -39 2 -2 -7
-16 -20 -30 -13 -14 -21 -29 -19 -34 3 -4 1 -10 -5 -14 -6 -4 -8 -11 -5 -16 4
-5 1 -9 -4 -9 -6 0 -11 -11 -11 -24 0 -14 -5 -28 -10 -31 -6 -3 -8 -19 -5 -36
3 -16 2 -29 -2 -29 -5 0 -8 -18 -8 -39 -1 -22 3 -37 7 -35 4 3 5 -2 2 -10 -3
-9 -11 -13 -18 -9 -6 4 -5 0 2 -9 14 -18 13 -49 -3 -60 -6 -5 -6 -8 2 -8 12 0
10 -30 -2 -50 -3 -6 -2 -10 3 -10 5 0 9 -7 9 -15 0 -8 -5 -15 -10 -15 -5 0 -5
-6 2 -13 8 -10 7 -17 -1 -25 -9 -9 -9 -12 1 -12 10 0 11 -3 2 -14 -8 -10 -9
-16 -1 -21 6 -3 7 -12 3 -18 -4 -7 -8 -19 -8 -27 0 -8 -4 -21 -9 -29 -6 -9 -5
-12 1 -8 6 4 14 0 17 -9 3 -8 2 -13 -3 -9 -5 3 -8 -19 -7 -50 0 -30 -2 -55 -7
-55 -4 0 -3 -9 3 -20 8 -15 8 -20 -2 -20 -9 0 -9 -3 2 -10 8 -5 11 -10 5 -10
-6 0 -10 -45 -10 -115 0 -63 -3 -115 -7 -115 -4 0 -3 -11 2 -24 5 -15 5 -27
-3 -35 -8 -8 -8 -11 2 -11 7 0 9 -5 5 -11 -4 -6 -8 -73 -10 -148 -2 -75 -6
-194 -9 -266 -6 -180 -13 -402 -15 -517 -2 -65 -6 -98 -14 -98 -8 0 -8 -3 0
-8 13 -8 14 -83 1 -75 -5 3 -4 -3 2 -14 7 -14 7 -23 -1 -31 -9 -9 -9 -12 0
-12 9 0 10 -6 4 -17 -4 -10 -7 -60 -7 -110 1 -60 -3 -93 -9 -93 -7 0 -8 -3 -1
-8 6 -4 10 -16 10 -27 0 -11 -4 -23 -10 -27 -6 -5 -5 -8 3 -8 7 0 11 -4 8 -9
-3 -4 -6 -47 -7 -95 -1 -56 -5 -86 -13 -86 -8 0 -7 -3 1 -8 12 -8 13 -29 0
-49 -4 -6 -3 -14 1 -17 7 -4 9 -61 2 -61 -6 0 -4 -98 3 -102 4 -2 4 -10 0 -16
-11 -19 -11 -47 1 -47 7 0 8 -3 1 -8 -6 -4 -10 -25 -10 -47 1 -22 -2 -52 -6
-67 -4 -14 -5 -29 -2 -32 7 -7 10 -76 3 -76 -3 0 -5 -47 -4 -105 1 -70 -3
-105 -10 -105 -6 0 -5 -4 3 -9 9 -6 10 -11 2 -15 -6 -4 -8 -14 -3 -24 9 -20 8
-64 -2 -81 -4 -6 -2 -11 4 -11 6 0 8 -5 4 -11 -3 -6 -8 -85 -10 -176 -4 -157
-12 -203 -35 -203 -6 0 -17 -7 -25 -15 -8 -8 -21 -12 -29 -8 -11 4 -13 1 -9
-11 4 -9 3 -16 -2 -15 -20 3 -54 -14 -54 -28 0 -8 -4 -12 -9 -8 -5 3 -13 0
-16 -6 -4 -5 -13 -8 -21 -5 -7 3 -16 0 -20 -6 -4 -7 -3 -8 4 -4 7 4 12 5 12 2
0 -2 -18 -15 -40 -27 -22 -13 -40 -26 -40 -30 0 -4 -11 -10 -25 -13 -14 -4
-23 -11 -20 -16 3 -6 -3 -10 -14 -10 -12 0 -21 -4 -21 -10 0 -5 -8 -10 -17
-10 -9 0 -13 -3 -10 -7 10 -9 -43 -34 -56 -26 -5 3 -7 1 -4 -4 4 -6 0 -16 -8
-23 -8 -7 -15 -9 -15 -5 0 5 -9 -2 -20 -15 -11 -13 -20 -19 -20 -15 0 4 -9 -2
-20 -15 -11 -13 -20 -20 -20 -16 0 7 -19 -7 -50 -38 -11 -10 -24 -15 -31 -11
-8 5 -10 4 -5 -3 4 -7 1 -12 -9 -12 -9 0 -13 -4 -10 -10 6 -9 -8 -14 -27 -11
-5 0 -8 -5 -8 -13 0 -8 -5 -18 -12 -22 -7 -5 -9 -2 -4 7 4 8 -2 3 -13 -10 -12
-13 -21 -19 -21 -15 0 5 -7 0 -15 -10 -8 -11 -15 -17 -15 -13 0 3 -11 -5 -25
-19 -14 -14 -30 -22 -37 -18 -6 4 -9 3 -6 -2 3 -5 0 -15 -8 -22 -8 -7 -14 -10
-14 -6 0 3 -9 -4 -20 -17 -10 -13 -19 -20 -20 -16 0 4 -6 2 -14 -5 -8 -7 -12
-16 -10 -19 2 -4 -8 -10 -21 -13 -14 -4 -23 -11 -20 -16 3 -5 -4 -11 -15 -15
-11 -3 -20 -11 -20 -16 0 -5 -4 -9 -10 -9 -5 0 -23 -14 -40 -31 -16 -18 -30
-29 -30 -26 0 3 -10 -4 -23 -16 -55 -53 -88 -77 -97 -72 -5 3 -7 0 -4 -8 3 -8
0 -18 -7 -23 -8 -5 -10 -3 -4 7 5 8 -10 -5 -34 -29 -23 -23 -47 -39 -53 -36
-6 4 -8 3 -5 -3 7 -10 -62 -79 -75 -75 -5 1 -8 -5 -8 -13 0 -8 -7 -15 -16 -15
-8 0 -12 -4 -9 -10 3 -5 2 -10 -4 -10 -6 0 -37 -27 -70 -59 -33 -32 -62 -56
-65 -53 -3 3 -6 -2 -6 -12 0 -9 -7 -19 -15 -22 -8 -4 -12 -11 -8 -18 4 -6 -1
-5 -11 3 -9 8 -16 10 -15 5 4 -21 -2 -35 -11 -29 -5 3 -10 2 -10 -4 0 -12
-133 -147 -142 -143 -5 1 -7 -1 -7 -6 3 -17 -2 -32 -10 -32 -12 0 -71 -59 -71
-71 0 -5 -8 -9 -17 -9 -9 0 -14 -3 -10 -6 3 -4 -7 -20 -23 -36 -17 -16 -30
-34 -30 -39 0 -6 -3 -8 -7 -6 -8 5 -28 -12 -31 -26 -1 -4 -16 -24 -34 -43 -18
-20 -32 -40 -31 -45 2 -5 -2 -9 -8 -9 -6 0 -17 -7 -25 -15 -9 -8 -13 -15 -9
-15 3 0 -5 -11 -18 -24 -13 -13 -46 -51 -72 -85 -26 -34 -52 -61 -57 -61 -5 0
-7 -4 -4 -9 3 -5 -1 -12 -9 -15 -8 -3 -14 -10 -13 -15 2 -5 -8 -18 -21 -30
-13 -12 -21 -21 -17 -21 4 0 -4 -10 -17 -22 -13 -13 -26 -31 -30 -40 -3 -10
-11 -18 -17 -18 -6 0 -8 -5 -5 -10 3 -6 -1 -13 -9 -16 -9 -3 -16 -12 -16 -19
0 -8 -12 -23 -27 -34 -14 -12 -23 -24 -20 -27 3 -3 -6 -17 -20 -30 -14 -13
-22 -24 -18 -24 5 0 0 -7 -11 -15 -10 -8 -15 -15 -11 -15 4 0 2 -6 -5 -14 -7
-8 -17 -11 -23 -8 -5 3 -7 2 -3 -3 4 -4 3 -14 -3 -22 -6 -7 -8 -13 -3 -13 5 0
-2 -7 -14 -16 -12 -8 -20 -19 -17 -24 3 -5 -1 -12 -8 -17 -7 -4 -25 -27 -39
-51 -13 -23 -28 -39 -33 -35 -4 5 -5 3 -2 -3 4 -6 -2 -22 -13 -34 -11 -13 -20
-29 -20 -37 0 -7 -4 -13 -8 -13 -9 0 -47 -62 -44 -72 1 -5 -3 -8 -9 -8 -5 0
-15 -13 -20 -29 -6 -16 -17 -32 -25 -35 -8 -3 -14 -14 -14 -25 0 -10 -7 -22
-16 -25 -9 -4 -14 -9 -10 -13 3 -3 -2 -15 -11 -26 -13 -15 -14 -19 -3 -13 13
7 13 6 0 -6 -15 -14 -24 -27 -69 -108 -14 -25 -29 -48 -34 -51 -5 -3 -9 -10
-9 -15 -1 -17 -21 -54 -30 -54 -4 0 -7 -3 -6 -7 4 -14 -13 -53 -23 -53 -5 0
-8 -3 -8 -7 3 -19 -2 -34 -9 -29 -4 2 -9 -5 -9 -17 -1 -12 -7 -23 -13 -25 -5
-2 -10 -12 -10 -23 0 -10 -4 -19 -9 -19 -5 0 -12 -10 -16 -22 -4 -13 -8 -25
-9 -28 -1 -3 -10 -20 -19 -37 -10 -18 -14 -33 -10 -33 5 0 0 -5 -10 -11 -9 -6
-15 -14 -12 -20 4 -5 1 -9 -5 -9 -6 0 -8 -4 -5 -10 3 -5 1 -10 -5 -10 -6 0 -9
-4 -5 -9 3 -5 0 -13 -6 -16 -5 -4 -8 -13 -5 -20 2 -7 -2 -16 -10 -19 -8 -3
-13 -9 -12 -13 1 -4 -6 -23 -15 -40 -10 -18 -14 -33 -10 -33 5 0 -1 -7 -11
-15 -11 -9 -14 -15 -7 -15 9 0 8 -5 -3 -16 -9 -8 -14 -19 -11 -24 3 -4 -2 -10
-10 -14 -8 -3 -12 -12 -9 -21 3 -8 2 -15 -3 -15 -8 0 -11 -14 -15 -57 -1 -6
-8 -9 -16 -6 -11 5 -13 1 -7 -15 4 -13 2 -22 -4 -22 -6 0 -10 -3 -9 -7 3 -15
-14 -63 -23 -63 -5 0 -8 -3 -7 -7 4 -20 -15 -62 -26 -56 -6 4 -5 -1 3 -10 9
-12 10 -17 2 -17 -7 0 -11 -8 -9 -17 2 -11 -2 -17 -10 -15 -8 1 -11 -2 -7 -8
4 -6 1 -17 -5 -25 -10 -12 -10 -15 1 -15 11 -1 10 -3 -2 -13 -9 -7 -14 -18
-12 -24 3 -7 0 -13 -5 -13 -5 0 -12 -12 -14 -27 -8 -44 -12 -58 -22 -64 -5 -4
-8 -18 -8 -33 0 -15 -5 -23 -11 -19 -6 4 -8 0 -4 -9 3 -9 0 -21 -6 -27 -6 -6
-8 -11 -4 -11 4 0 1 -15 -7 -34 -8 -19 -12 -37 -8 -40 3 -3 1 -6 -4 -6 -5 0
-11 -8 -12 -17 -6 -50 -8 -58 -15 -64 -4 -3 -10 -19 -13 -34 -3 -16 -11 -36
-17 -44 -9 -12 -9 -13 0 -7 9 5 11 2 7 -8 -3 -9 -9 -16 -13 -16 -4 0 -6 -12
-5 -27 0 -16 -6 -34 -15 -41 -9 -8 -10 -11 -3 -7 6 3 12 1 12 -4 0 -6 -4 -11
-9 -11 -6 0 -8 -9 -6 -20 2 -11 0 -20 -4 -20 -4 0 -8 -6 -9 -12 -5 -59 -11
-83 -20 -81 -5 1 -8 -7 -5 -17 3 -11 0 -26 -6 -34 -8 -10 -9 -16 -2 -21 7 -4
7 -12 2 -23 -14 -26 -23 -54 -27 -82 -3 -26 -11 -65 -14 -65 -2 0 -5 -25 -13
-85 -1 -14 -5 -29 -8 -35 -3 -5 -6 -23 -7 -40 -2 -30 -9 -68 -12 -72 -3 -4 -7
-39 -9 -74 -1 -19 -5 -28 -12 -23 -8 5 -8 1 0 -13 7 -14 7 -23 -1 -31 -7 -7
-8 -12 -4 -12 5 0 2 -8 -5 -17 -10 -11 -10 -14 -1 -9 6 4 12 3 12 -3 0 -5 -4
-12 -9 -15 -5 -3 -7 -15 -4 -25 3 -10 0 -28 -6 -40 -9 -16 -9 -21 1 -21 8 -1
5 -7 -6 -15 -11 -8 -14 -15 -8 -15 9 0 10 -12 5 -43 -3 -23 -7 -54 -7 -69 0
-16 -2 -28 -6 -28 -3 0 -6 -9 -6 -20 0 -11 4 -20 9 -20 5 0 5 -6 -2 -13 -8
-10 -7 -17 2 -27 9 -9 9 -11 0 -6 -9 5 -11 -5 -10 -34 2 -22 0 -40 -3 -40 -3
0 -5 -26 -4 -58 1 -31 -3 -63 -9 -69 -6 -9 -6 -13 1 -13 11 0 11 -18 -1 -37
-5 -8 -3 -13 3 -13 8 0 8 -6 0 -20 -8 -15 -8 -20 1 -20 8 0 9 -4 0 -13 -6 -8
-8 -17 -4 -21 10 -10 11 -46 1 -46 -5 0 -5 -8 0 -17 5 -10 6 -27 2 -38 -4 -11
-3 -26 2 -32 6 -7 6 -13 1 -13 -10 0 -11 -56 0 -66 4 -4 2 -13 -4 -21 -6 -7
-7 -13 -2 -13 5 0 9 -9 9 -20 0 -11 -4 -20 -9 -20 -5 0 -4 -6 2 -13 6 -8 8
-17 4 -21 -10 -9 -11 -46 -2 -40 4 2 7 -8 5 -23 -1 -16 1 -42 5 -60 4 -21 3
-34 -5 -37 -7 -3 -7 -5 0 -5 5 -1 9 -16 8 -33 -1 -18 3 -36 9 -40 9 -6 9 -8 0
-8 -7 0 -10 -9 -7 -23 3 -12 7 -43 9 -70 2 -26 6 -51 10 -56 3 -5 -1 -12 -7
-14 -10 -4 -10 -6 0 -6 7 -1 10 -6 7 -11 -4 -6 -1 -18 7 -27 9 -12 9 -15 1 -9
-7 4 -13 3 -13 -3 0 -5 4 -12 8 -15 5 -3 8 -21 7 -41 0 -19 2 -35 6 -35 4 0 5
-9 2 -20 -3 -12 0 -20 6 -20 7 0 9 -5 4 -12 -11 -19 -13 -39 -2 -32 5 3 9 -11
9 -30 0 -49 0 -49 13 -65 10 -12 9 -13 -3 -6 -13 8 -13 6 -1 -8 7 -9 11 -24 7
-32 -3 -8 -1 -15 5 -15 6 0 8 -4 5 -9 -4 -5 -2 -20 3 -33 5 -14 10 -40 12 -59
2 -19 6 -39 11 -45 4 -5 9 -29 10 -52 2 -23 7 -42 11 -42 5 0 6 -4 2 -9 -3 -5
-1 -12 5 -16 6 -4 8 -11 4 -16 -3 -5 0 -17 8 -26 11 -14 11 -16 -2 -8 -12 6
-13 5 -2 -6 6 -7 12 -23 12 -36 0 -13 4 -23 9 -23 5 0 8 -8 6 -18 -1 -9 2 -23
8 -30 5 -6 6 -12 2 -12 -4 0 -3 -6 3 -13 6 -7 13 -26 16 -42 2 -17 5 -30 6
-30 2 0 11 -37 12 -52 1 -7 5 -13 10 -13 4 0 8 -5 8 -11 0 -5 -5 -7 -11 -4 -6
4 -5 -2 3 -14 7 -12 15 -21 18 -21 3 0 7 -12 8 -26 1 -15 7 -33 13 -40 6 -8 9
-14 6 -14 -3 0 -1 -13 4 -30 7 -18 16 -27 22 -24 8 5 8 3 0 -6 -10 -11 -9 -16
5 -27 9 -8 11 -11 4 -8 -11 6 -11 3 0 -16 7 -13 15 -26 18 -29 3 -3 7 -16 8
-30 2 -14 8 -26 13 -28 5 -2 9 -8 9 -13 0 -6 -6 -7 -12 -4 -7 4 -6 0 4 -7 9
-8 18 -23 20 -33 1 -11 9 -26 16 -33 6 -7 12 -20 12 -28 0 -8 4 -12 10 -9 5 3
7 0 4 -9 -3 -8 5 -34 17 -58 12 -23 22 -45 21 -48 0 -3 7 -14 16 -24 13 -15
14 -18 2 -12 -8 4 -6 -1 5 -11 11 -10 22 -27 23 -38 2 -11 8 -21 13 -23 5 -2
9 -10 9 -19 0 -8 8 -27 18 -41 10 -15 24 -42 31 -59 8 -18 17 -33 21 -33 4 0
10 -10 14 -23 7 -30 8 -30 23 -45 7 -7 13 -20 13 -28 0 -8 5 -14 10 -14 6 0
10 -7 10 -15 0 -8 5 -15 11 -15 5 0 7 -5 4 -10 -3 -5 -1 -10 5 -10 6 0 8 -4 5
-10 -3 -5 -1 -10 4 -10 6 0 11 -7 11 -15 0 -8 5 -15 10 -15 6 0 10 -7 10 -15
0 -8 5 -15 10 -15 6 0 10 -7 10 -15 0 -8 5 -15 10 -15 6 0 10 -9 10 -21 0 -11
5 -17 10 -14 6 3 10 0 10 -9 0 -8 4 -16 9 -18 5 -1 11 -10 13 -18 2 -8 11 -22
21 -31 9 -9 17 -21 17 -28 0 -6 5 -11 10 -11 6 0 10 -5 10 -10 0 -6 9 -20 20
-32 10 -12 17 -25 14 -30 -3 -4 3 -8 12 -8 10 0 15 -3 11 -6 -3 -3 5 -18 19
-32 13 -15 24 -31 24 -37 0 -6 9 -16 20 -23 11 -7 20 -17 20 -24 0 -6 13 -23
29 -39 16 -15 27 -30 23 -33 -3 -3 0 -6 7 -6 7 0 9 -4 6 -10 -3 -5 1 -10 10
-10 9 0 13 -4 10 -10 -3 -5 1 -10 10 -10 9 0 13 -5 10 -10 -3 -6 -1 -10 4 -10
6 0 11 -8 11 -17 0 -9 3 -14 6 -10 8 7 33 -15 28 -25 -2 -3 7 -15 21 -26 14
-11 25 -23 25 -26 0 -3 13 -19 30 -34 16 -16 28 -31 25 -34 -3 -2 6 -11 20
-18 14 -7 25 -20 25 -27 0 -8 4 -11 10 -8 6 3 10 1 10 -5 0 -15 58 -70 73 -70
6 0 8 -3 4 -6 -6 -7 121 -134 135 -134 4 0 8 -7 8 -15 0 -8 4 -15 10 -15 5 0
30 -20 54 -45 25 -25 48 -45 51 -45 3 0 25 -20 50 -44 25 -25 45 -42 45 -38 1
4 10 -4 20 -17 11 -13 20 -19 20 -15 0 5 7 -2 16 -14 8 -12 20 -19 26 -16 6 4
9 3 6 -2 -3 -5 0 -15 8 -22 8 -7 14 -10 14 -5 0 4 7 -2 15 -13 8 -10 15 -16
15 -12 0 4 10 -3 23 -15 12 -12 37 -33 55 -47 19 -14 40 -31 48 -38 8 -7 14
-10 14 -6 0 4 8 -3 19 -14 10 -12 24 -22 30 -22 6 0 14 -7 17 -15 4 -8 9 -13
13 -11 4 3 20 -8 35 -25 15 -16 32 -29 38 -29 6 0 19 -9 29 -21 9 -11 20 -19
24 -18 4 1 20 -8 36 -20 16 -12 31 -21 35 -21 3 1 14 -9 25 -21 10 -12 19 -19
19 -15 0 8 46 -21 74 -46 10 -9 31 -22 47 -28 16 -7 29 -16 29 -21 0 -5 7 -9
15 -9 9 0 18 -6 21 -14 3 -9 12 -12 21 -9 11 4 14 2 9 -5 -5 -8 0 -12 13 -12
12 0 21 -4 21 -10 0 -5 4 -10 10 -10 15 0 100 -57 94 -63 -3 -3 4 -3 17 0 15
4 20 3 15 -5 -4 -7 -1 -12 8 -12 9 0 16 -4 16 -10 0 -5 3 -9 8 -9 21 4 32 -2
26 -13 -4 -7 -4 -10 1 -6 4 4 20 1 36 -8 16 -8 32 -14 35 -13 4 0 10 -4 13 -9
3 -5 36 -25 73 -44 37 -19 64 -39 60 -43 -4 -5 -2 -5 5 -2 16 10 44 -3 36 -16
-4 -6 0 -8 10 -4 10 3 17 2 17 -4 0 -6 4 -7 10 -4 6 3 10 1 10 -4 0 -6 9 -11
20 -11 11 0 20 -4 20 -9 0 -8 37 -24 53 -22 4 1 7 -4 7 -10 0 -5 5 -7 10 -4 6
3 10 1 10 -4 0 -6 7 -11 15 -11 8 0 15 -6 15 -12 0 -10 2 -10 9 0 7 11 9 10
15 -3 3 -9 10 -13 16 -10 5 3 10 1 10 -5 0 -6 4 -9 9 -6 5 3 14 -1 21 -9 7 -8
16 -12 21 -9 5 3 9 0 9 -6 0 -7 7 -10 15 -6 12 4 15 -1 13 -22 -1 -15 1 -33 5
-39 4 -6 4 -14 -1 -17 -4 -2 -7 -24 -7 -48 0 -24 -4 -46 -10 -50 -6 -5 -5 -8
2 -8 8 0 10 -7 5 -22 -4 -13 -7 -45 -6 -73 1 -27 -3 -58 -8 -69 -7 -13 -7 -16
1 -12 6 4 11 1 11 -8 0 -8 -5 -18 -10 -21 -8 -5 -8 -11 0 -20 8 -10 7 -14 -2
-18 -11 -4 -10 -6 0 -6 7 -1 10 -6 6 -12 -6 -10 -13 -119 -17 -279 -1 -36 -6
-68 -12 -72 -6 -5 -5 -8 3 -8 10 0 10 -5 1 -21 -9 -17 -8 -20 2 -14 8 6 10 4
4 -4 -6 -11 -14 -111 -18 -266 -2 -33 -6 -66 -10 -72 -5 -8 -4 -13 2 -13 13 0
10 -22 -4 -32 -6 -5 -5 -8 2 -8 9 0 10 -7 2 -27 -7 -19 -6 -28 2 -33 6 -5 7
-10 2 -13 -6 -4 -9 -34 -9 -67 1 -34 -2 -64 -7 -67 -5 -3 -3 -9 4 -14 11 -7
11 -9 -1 -9 -13 0 -13 -1 0 -10 8 -5 11 -10 5 -10 -6 0 -10 -40 -9 -103 0 -56
-3 -110 -8 -119 -4 -9 -4 -19 1 -23 11 -6 11 -45 1 -45 -4 0 -7 -7 -7 -15 0
-8 4 -15 9 -15 5 0 4 -9 -2 -20 -8 -14 -8 -20 0 -20 7 0 7 -7 -1 -21 -8 -16
-8 -20 1 -14 9 6 9 3 1 -12 -7 -14 -7 -23 1 -31 8 -8 8 -12 2 -12 -6 0 -11 -7
-11 -15 0 -8 4 -15 9 -15 5 0 6 -5 2 -11 -9 -15 -9 -93 0 -107 3 -6 2 -13 -4
-17 -6 -4 -7 -12 -3 -18 4 -7 8 -45 9 -85 1 -40 4 -75 7 -78 3 -3 3 -12 0 -20
-3 -8 0 -14 6 -14 8 0 9 -6 2 -18 -5 -10 -6 -24 -1 -33 5 -8 10 -34 11 -57 2
-23 8 -42 13 -42 6 0 4 -5 -4 -10 -8 -5 -10 -10 -4 -10 6 0 11 -6 12 -12 1
-19 10 -73 12 -73 1 0 3 -8 6 -17 2 -10 6 -24 8 -30 17 -53 19 -63 17 -67 -2
-2 2 -7 8 -10 6 -4 12 -19 13 -33 1 -15 5 -25 9 -22 7 4 24 -44 21 -58 -1 -5
3 -8 8 -8 6 0 17 -18 26 -40 9 -22 20 -40 25 -40 5 0 9 -6 9 -12 0 -12 30 -53
66 -90 9 -9 13 -22 8 -29 -4 -7 -3 -10 3 -6 6 4 24 -9 40 -28 17 -19 33 -32
36 -28 4 3 7 -1 7 -10 0 -10 3 -17 8 -17 12 0 62 -47 57 -54 -3 -3 -2 -4 2 -1
3 3 15 -2 25 -12 10 -9 18 -13 18 -9 0 4 7 1 15 -6 40 -36 95 -71 95 -61 0 5
5 0 10 -9 6 -9 24 -19 40 -23 17 -4 30 -11 30 -16 0 -5 9 -9 20 -9 11 0 20 -4
20 -10 0 -5 5 -10 11 -10 5 0 7 6 4 13 -4 6 0 4 8 -6 8 -9 21 -17 29 -17 8 0
18 -3 22 -8 4 -4 11 -7 14 -8 7 -1 32 -10 70 -25 13 -5 28 -7 33 -4 5 4 9 1 9
-6 0 -7 3 -9 7 -6 3 4 12 2 20 -4 7 -6 22 -9 33 -6 11 3 20 1 20 -5 0 -5 4 -6
10 -3 5 3 10 2 10 -2 0 -5 10 -10 23 -11 37 -4 51 -7 65 -15 6 -5 16 -5 22 -2
6 3 10 2 10 -3 0 -6 10 -8 22 -4 15 4 19 2 13 -7 -6 -10 -3 -11 15 -1 18 10
21 9 15 -1 -6 -9 -2 -11 13 -7 12 4 22 2 22 -4 0 -5 5 -6 10 -3 6 3 16 3 23
-2 6 -4 26 -8 42 -9 71 -5 101 -10 114 -18 10 -7 12 -6 6 4 -6 10 -4 11 6 4 8
-4 21 -10 29 -11 36 -6 197 -23 240 -26 14 -1 28 -6 32 -12 5 -6 8 -5 8 4 0
11 3 11 17 0 14 -12 16 -12 8 0 -6 11 -5 12 6 5 14 -8 32 -10 132 -15 27 -1
47 -6 47 -13 0 -7 3 -7 8 -1 10 14 32 17 32 4 0 -8 4 -8 14 0 8 7 17 8 19 4 3
-5 27 -8 54 -7 26 0 56 -3 66 -8 11 -6 17 -5 17 3 0 7 4 8 13 2 6 -5 27 -8 44
-7 18 1 35 -2 39 -7 3 -5 13 -5 25 1 14 8 19 7 19 -1 0 -8 4 -8 15 1 12 10 15
10 15 0 0 -10 3 -10 15 0 8 7 15 8 15 3 0 -5 21 -8 48 -7 26 1 52 -3 59 -8 7
-6 14 -5 18 2 5 8 11 8 21 -1 11 -9 14 -9 14 0 0 9 5 9 21 0 17 -9 23 -8 30 2
5 8 9 10 9 4 0 -6 38 -10 95 -10 52 0 95 -4 95 -8 0 -4 9 -3 20 3 11 6 20 7
20 2 0 -4 9 -8 20 -9 11 -1 20 3 20 8 0 6 5 7 13 2 6 -4 50 -9 97 -10 209 -4
260 -7 260 -17 0 -8 3 -7 8 0 9 14 74 13 85 -1 4 -7 10 -7 15 0 9 12 52 16 52
4 0 -5 10 -5 23 0 14 5 30 5 40 0 9 -6 17 -6 17 -1 0 5 7 9 15 9 8 0 15 -3 15
-7 0 -4 7 -7 15 -7 8 0 15 4 15 9 0 5 6 6 13 1 6 -4 87 -9 179 -10 92 0 171
-3 175 -5 4 -1 74 -3 155 -3 92 0 148 -4 148 -10 0 -7 3 -7 8 0 10 14 32 17
32 5 0 -6 9 -6 23 -1 12 5 31 5 42 1 11 -4 26 -3 33 2 8 7 12 7 12 -1 0 -8 5
-9 19 -1 14 7 22 7 27 -1 4 -8 9 -7 15 2 5 8 9 10 9 4 0 -6 64 -11 168 -12
281 -3 372 -7 372 -18 0 -7 3 -7 8 0 11 15 32 17 48 4 8 -6 14 -7 14 -3 0 5
27 9 60 9 33 0 60 -4 60 -8 0 -4 8 -3 18 2 11 6 24 6 35 0 12 -7 17 -6 17 1 0
6 5 8 12 4 18 -11 68 -13 62 -2 -4 6 0 7 12 1 23 -11 54 -11 73 1 9 6 12 5 8
-1 -4 -5 33 -9 96 -9 56 1 108 -3 115 -8 7 -5 12 -4 12 3 0 9 5 9 22 0 15 -8
23 -8 25 -2 2 6 17 8 36 4 18 -4 52 -6 77 -5 25 1 50 -3 57 -8 6 -5 14 -5 17
0 5 9 129 7 153 -2 8 -3 12 -2 9 2 -2 4 13 8 35 7 21 0 39 -3 39 -7 0 -5 23
-4 40 2 3 1 10 1 15 0 6 -2 73 -4 150 -7 77 -2 146 -5 153 -8 6 -2 12 1 12 7
0 6 5 7 13 1 6 -5 38 -8 69 -8 35 1 55 -2 51 -8 -4 -6 -1 -7 7 -2 19 12 80 13
80 1 0 -6 4 -6 11 1 8 8 20 8 36 2 16 -6 22 -5 18 1 -4 6 2 7 17 1 15 -5 31
-5 41 0 11 7 17 6 17 0 0 -10 19 -9 38 2 6 5 12 4 12 0 0 -5 33 -9 73 -10 39
0 176 -4 302 -8 444 -13 489 -13 504 -1 12 9 13 8 7 -2 -7 -11 -4 -12 10 -4
11 5 25 7 32 5 6 -3 12 1 12 8 0 7 3 9 7 6 3 -4 12 -2 20 4 7 6 13 9 13 5 0
-4 14 0 30 9 17 9 30 12 30 9 0 -4 8 3 19 14 10 12 21 19 25 15 3 -3 6 0 6 7
0 7 3 10 7 7 3 -4 12 2 20 13 8 11 21 20 29 20 8 0 13 4 9 9 -3 6 0 13 7 18
19 12 69 82 73 101 2 9 4 19 4 22 1 3 6 -2 11 -10 8 -11 9 -9 6 12 -3 16 1 28
8 31 7 3 12 19 11 36 -1 17 2 31 8 31 5 0 7 7 4 15 -4 8 -2 17 3 20 7 4 6 13
0 26 -6 10 -7 19 -2 19 16 0 -4 151 -22 162 -6 4 -7 8 -2 8 5 0 3 7 -4 15 -7
8 -10 22 -6 30 3 9 2 13 -4 10 -6 -3 -10 0 -10 8 0 8 -7 20 -15 27 -9 7 -13
15 -11 17 2 3 -9 18 -25 35 -16 17 -26 34 -23 39 3 5 -2 6 -10 3 -11 -4 -16 0
-16 12 0 9 -3 15 -6 11 -3 -3 -19 8 -35 24 -15 16 -35 29 -44 29 -8 0 -15 5
-15 11 0 5 -5 7 -10 4 -6 -3 -10 -2 -10 3 0 5 -7 9 -15 10 -8 1 -22 3 -30 4
-8 1 -15 4 -15 8 0 3 -10 6 -21 7 -12 1 -26 6 -32 12 -6 6 -19 6 -33 1 -15 -6
-24 -6 -24 0 0 12 -22 9 -32 -5 -5 -7 -8 -6 -8 0 0 10 -31 12 -297 18 -53 1
-89 5 -86 11 4 5 1 6 -7 1 -21 -13 -60 -14 -60 -2 0 8 -3 8 -11 0 -7 -7 -21
-8 -39 -3 -18 5 -32 4 -39 -3 -6 -6 -11 -7 -11 -2 0 6 -45 10 -105 10 -63 0
-105 4 -105 10 0 6 -4 4 -9 -4 -8 -12 -12 -12 -25 -2 -10 8 -16 9 -16 3 0 -7
-10 -8 -30 -2 -19 5 -30 5 -30 -1 0 -6 -5 -7 -12 -3 -18 11 -91 11 -107 -1
-11 -7 -13 -7 -7 3 6 9 1 11 -18 8 -16 -3 -26 0 -26 7 0 8 -3 8 -8 2 -4 -6
-16 -11 -27 -11 -11 0 -23 5 -27 11 -5 7 -8 6 -8 -1 0 -11 -35 -12 -46 -1 -4
3 -14 2 -24 -3 -10 -5 -20 -6 -24 -3 -11 11 -36 12 -36 2 0 -6 -6 -7 -12 -2
-20 12 -82 11 -90 -1 -5 -7 -8 -7 -8 -1 0 10 -106 15 -337 17 -42 1 -60 5 -56
12 5 8 3 8 -8 0 -15 -11 -169 -11 -188 0 -6 4 -11 3 -11 -2 0 -12 -33 -10 -41
2 -4 4 -16 3 -27 -3 -15 -8 -23 -8 -28 0 -4 8 -9 7 -15 -2 -5 -8 -9 -9 -9 -4
0 6 -31 10 -75 10 -45 -1 -75 3 -75 10 0 7 -3 7 -8 0 -8 -13 -55 -18 -47 -5 3
5 -7 5 -23 1 -16 -5 -36 -5 -45 1 -12 6 -17 5 -17 -4 0 -9 -3 -9 -10 2 -7 11
-10 11 -10 2 0 -10 -5 -10 -20 -2 -15 8 -20 8 -20 -2 0 -8 -4 -7 -10 4 -9 15
-13 15 -37 3 -15 -8 -31 -11 -37 -8 -6 4 -31 7 -56 7 -25 -1 -48 4 -52 10 -6
8 -8 8 -8 0 0 -10 -42 -12 -75 -4 -5 1 -12 1 -15 0 -20 -7 -40 -7 -40 1 0 6
-6 7 -12 3 -18 -11 -48 -12 -48 -2 0 4 -5 8 -11 8 -5 0 -7 -5 -3 -12 5 -7 3
-8 -7 -3 -17 11 -50 12 -67 1 -6 -4 -12 -3 -12 3 0 8 -43 9 -75 1 -5 -1 -12
-1 -15 0 -3 1 -31 4 -63 6 -44 3 -56 0 -50 -9 5 -9 3 -9 -8 -1 -8 6 -28 11
-45 11 -16 0 -36 3 -44 8 -9 5 -11 4 -6 -4 6 -8 1 -10 -18 -5 -14 3 -91 7
-171 8 -89 0 -145 5 -145 11 0 6 -3 6 -8 0 -9 -14 -45 -14 -54 0 -5 7 -8 6 -8
-1 0 -6 -7 -11 -15 -11 -8 0 -15 5 -15 11 0 6 -4 5 -9 -3 -6 -9 -11 -10 -15
-2 -5 7 -13 8 -25 2 -10 -6 -23 -6 -31 -1 -8 5 -22 4 -32 -1 -13 -7 -18 -6
-18 2 0 8 -4 8 -15 -1 -8 -7 -15 -8 -15 -4 0 5 -69 10 -152 11 -232 1 -292 5
-307 17 -10 8 -13 8 -8 0 7 -12 -100 -13 -120 -1 -6 4 -13 1 -16 -5 -3 -10 -7
-10 -17 -1 -9 8 -19 9 -32 2 -12 -7 -18 -6 -18 1 0 7 -6 8 -19 0 -14 -7 -22
-7 -27 1 -4 8 -9 7 -15 -2 -6 -10 -9 -11 -9 -2 0 15 -21 13 -32 -2 -5 -7 -8
-6 -8 0 0 15 -40 16 -40 2 0 -8 -3 -9 -8 -1 -4 6 -38 11 -77 11 -38 1 -70 2
-70 3 0 1 -47 3 -105 5 -58 3 -109 5 -115 6 -5 1 -18 -2 -27 -6 -12 -4 -18 -3
-18 5 0 10 -3 10 -15 0 -8 -7 -15 -9 -15 -4 0 5 -43 9 -95 9 -57 0 -95 4 -95
10 0 6 -5 3 -10 -5 -6 -10 -10 -11 -10 -2 0 6 -5 12 -11 12 -5 0 -7 -6 -3 -12
6 -10 4 -10 -8 0 -11 9 -18 10 -23 2 -4 -7 -13 -5 -27 4 -13 9 -28 12 -37 7
-15 -7 -37 -7 -43 -1 -8 7 -58 5 -58 -3 0 -5 -7 -1 -16 7 -18 18 -28 21 -19 6
7 -11 -35 -7 -54 4 -5 4 -12 0 -14 -6 -4 -9 -6 -9 -6 -1 -1 6 -10 9 -23 5 -16
-4 -19 -2 -13 8 6 10 4 11 -6 4 -18 -11 -40 -12 -61 -1 -10 4 -18 4 -18 -1 0
-5 -7 -9 -15 -9 -8 0 -12 4 -9 8 2 4 -10 8 -28 8 -65 -1 -103 4 -117 15 -11 8
-13 8 -7 -1 4 -7 3 -13 -3 -13 -5 0 -13 5 -17 11 -4 8 -9 7 -15 -2 -6 -9 -9
-10 -9 -2 0 6 -8 10 -17 8 -10 -1 -24 2 -30 8 -9 6 -13 6 -13 -3 0 -9 -3 -10
-13 -1 -8 6 -16 8 -19 6 -3 -3 -17 -1 -32 5 -15 5 -25 6 -22 1 4 -5 -3 -7 -14
-4 -11 3 -17 10 -14 15 4 6 -3 5 -14 -1 -14 -7 -23 -8 -27 -1 -4 6 -11 7 -17
4 -6 -4 -14 0 -19 7 -7 11 -9 11 -9 1 0 -7 -5 -10 -10 -7 -6 4 -7 11 -4 17 5
7 2 8 -7 2 -16 -10 -56 -6 -83 8 -14 8 -17 7 -10 -4 7 -11 5 -11 -9 0 -9 8
-21 11 -26 8 -5 -4 -12 -2 -16 4 -4 6 -11 8 -16 5 -5 -4 -9 -1 -9 5 0 6 -4 8
-10 5 -5 -3 -20 0 -32 6 -13 7 -33 13 -46 14 -13 0 -26 5 -30 10 -4 6 -13 10
-19 11 -29 2 -34 4 -29 13 4 5 -3 7 -14 4 -12 -3 -22 1 -26 11 -3 9 -9 14 -14
11 -4 -2 -13 7 -20 20 -7 13 -18 22 -23 18 -6 -3 -7 -2 -4 4 3 5 0 21 -7 35
-10 19 -11 29 -3 37 8 8 8 11 -1 11 -7 0 -12 14 -12 34 0 19 -4 37 -9 41 -6 3
-6 17 -1 35 6 21 5 30 -3 30 -7 0 -6 4 3 10 8 5 10 10 4 10 -6 0 -11 46 -11
130 -1 71 -4 134 -8 140 -3 5 -2 10 3 10 5 0 7 19 5 42 -3 27 0 44 9 49 8 6 9
9 2 9 -8 0 -11 21 -10 60 0 33 5 60 10 60 5 0 4 6 -2 13 -7 8 -7 18 -2 27 5 8
5 21 0 30 -5 9 -5 22 0 30 5 9 5 19 -2 27 -6 7 -6 13 -2 13 5 0 9 27 9 60 0
33 4 60 9 60 4 0 3 6 -3 13 -6 8 -8 16 -5 20 3 3 6 43 8 89 1 45 5 88 8 93 4
6 3 17 -2 25 -5 8 -4 22 2 33 7 15 7 22 -3 28 -10 6 -11 9 -2 9 15 0 13 21 -2
32 -7 5 -7 8 0 8 6 0 11 36 13 81 1 45 5 86 8 90 3 5 -1 9 -8 9 -9 0 -9 3 -2
8 6 4 10 21 9 37 -1 17 3 33 9 37 7 5 6 8 -4 8 -13 0 -13 1 0 10 12 8 12 10 1
10 -11 0 -11 3 -1 15 9 11 9 15 1 15 -7 0 -9 5 -5 12 11 18 12 48 2 54 -5 3
-5 11 1 18 5 6 9 20 7 31 -1 10 0 36 4 57 4 22 3 38 -2 38 -5 0 -6 5 -2 12 4
6 8 28 8 47 1 36 5 39 40 25 15 -6 17 -4 11 7 -8 12 -6 12 8 0 9 -7 14 -18 10
-25 -4 -6 1 -5 10 3 12 9 17 10 17 2 0 -7 8 -11 18 -9 10 2 16 -2 14 -10 -2
-10 2 -11 15 -4 11 7 21 6 31 -4 7 -8 18 -12 23 -9 5 4 9 1 9 -5 0 -6 4 -9 9
-5 6 3 33 -5 61 -19 27 -13 47 -19 44 -13 -5 8 -2 7 7 0 7 -7 21 -13 31 -13
10 0 18 -6 18 -12 0 -9 4 -8 10 2 6 10 10 11 10 3 0 -7 11 -13 25 -13 14 0 25
-4 25 -10 0 -5 7 -6 17 -3 10 4 14 2 10 -4 -4 -6 3 -9 18 -7 14 1 25 -2 25 -7
0 -5 14 -9 31 -9 17 0 28 -4 24 -10 -4 -6 1 -7 11 -3 10 4 15 2 11 -3 -3 -6 7
-9 24 -8 16 1 32 -2 35 -7 3 -5 14 -9 25 -9 10 0 19 -6 19 -12 0 -9 4 -8 10 2
6 10 10 11 10 3 0 -7 11 -13 25 -13 14 0 25 -5 25 -11 0 -5 4 -8 9 -4 5 3 29
-1 53 -9 24 -8 52 -16 63 -18 11 -2 23 -7 27 -12 3 -5 25 -10 48 -10 22 -1 44
-6 48 -12 4 -6 17 -10 30 -9 12 1 22 -1 22 -5 0 -5 18 -9 58 -12 6 -1 12 -6
12 -11 0 -5 6 -7 14 -4 8 3 17 3 20 -1 4 -3 12 -7 19 -8 7 -2 25 -6 41 -9 16
-3 34 -7 40 -8 6 -1 13 -5 16 -9 3 -3 21 -9 40 -11 19 -3 35 -6 35 -7 0 -1 16
-4 35 -7 19 -2 37 -9 38 -14 2 -6 11 -4 20 3 9 7 13 8 10 3 -4 -6 9 -15 27
-21 20 -6 32 -7 28 -1 -3 5 4 4 16 -2 11 -7 21 -9 21 -5 0 3 7 1 15 -6 9 -7
18 -10 22 -7 3 4 12 -1 20 -11 8 -9 12 -11 8 -4 -8 16 -2 15 41 -3 24 -10 32
-11 27 -2 -4 7 5 4 20 -6 15 -10 27 -13 27 -7 0 6 5 8 10 5 6 -4 7 -12 3 -18
-5 -8 -2 -8 9 0 8 7 18 10 22 6 7 -7 35 -14 71 -16 11 -1 22 -5 25 -9 3 -3 23
-8 45 -10 22 -3 51 -10 64 -17 19 -11 22 -11 15 1 -6 10 -5 11 7 2 8 -6 22
-10 32 -9 9 2 17 -1 17 -7 0 -6 11 -8 25 -6 14 3 28 2 30 -3 3 -4 14 -6 25 -4
11 2 20 1 20 -3 0 -4 12 -9 26 -10 15 -1 33 -7 40 -13 11 -9 14 -8 14 0 0 9 5
9 21 0 12 -6 29 -9 39 -6 11 3 21 -2 25 -11 5 -14 7 -14 16 -2 5 10 12 11 17
5 8 -11 15 -13 66 -17 20 -1 36 -5 36 -9 0 -4 12 -7 28 -7 35 0 55 -5 64 -17
5 -6 8 -5 8 4 0 10 3 11 14 2 8 -6 31 -14 52 -16 22 -3 55 -7 74 -11 19 -3 43
-6 53 -6 9 1 15 -3 13 -7 -3 -4 9 -5 26 -3 17 3 28 1 25 -4 -3 -5 15 -9 39 -8
24 1 44 -1 44 -5 0 -5 45 -12 103 -14 9 -1 17 -4 17 -8 0 -4 9 -5 20 -2 11 3
20 1 20 -4 0 -5 18 -9 40 -8 22 1 40 -2 40 -5 0 -3 10 -6 23 -7 52 -2 87 -8
87 -15 0 -4 11 -3 24 2 18 7 28 5 37 -6 10 -12 14 -12 20 -2 5 7 9 8 9 2 0 -5
14 -9 30 -8 17 1 30 -1 30 -5 0 -4 15 -7 33 -8 62 -2 117 -8 117 -13 0 -3 23
-6 52 -8 29 -1 56 -8 60 -15 6 -9 8 -8 8 3 0 9 3 11 8 5 4 -6 18 -11 32 -12
14 -1 44 -3 68 -4 23 -2 42 -8 42 -13 0 -6 5 -4 10 4 5 8 10 11 10 5 0 -9 46
-16 128 -19 17 0 32 -3 32 -6 0 -3 23 -6 52 -7 28 -1 58 -5 67 -9 26 -11 61
-10 61 1 0 7 3 7 8 0 4 -6 21 -12 37 -13 46 -4 99 -10 105 -12 3 -1 19 -2 35
-2 17 0 36 -5 43 -10 8 -7 12 -7 12 2 0 10 3 10 15 0 8 -7 15 -9 15 -5 0 4 6
2 13 -4 8 -6 17 -8 21 -4 9 9 46 11 46 3 0 -3 24 -7 53 -7 28 0 59 -3 67 -6 8
-3 29 -5 45 -6 68 -1 151 -13 164 -24 11 -9 13 -9 8 -1 -4 8 2 11 18 10 14 0
25 -5 25 -10 0 -5 7 -3 15 4 8 7 15 9 15 4 0 -5 21 -10 48 -11 89 -3 180 -11
189 -15 4 -2 25 -4 46 -3 20 0 37 -3 37 -7 0 -5 8 -4 19 1 10 6 21 7 25 3 4
-3 31 -7 59 -8 29 -1 53 -3 55 -4 7 -8 48 -4 54 5 5 7 8 6 8 -1 0 -7 27 -12
68 -14 84 -4 137 -7 137 -10 0 0 36 -3 80 -5 44 -2 82 -4 85 -5 3 -1 31 -2 62
-2 32 0 55 -5 52 -9 -3 -5 6 -5 19 0 16 6 28 6 36 -2 8 -8 11 -8 11 2 0 7 5 9
12 5 20 -13 59 -14 52 -2 -5 7 -2 8 7 2 8 -4 37 -9 64 -10 28 -2 50 -3 50 -4
0 -1 45 -2 100 -3 56 -1 103 -6 107 -12 5 -6 8 -6 8 2 0 8 9 9 30 3 18 -5 32
-5 35 1 4 5 13 5 24 -1 12 -6 22 -5 29 2 7 7 12 8 12 2 0 -5 9 -10 20 -11 12
-1 18 3 14 9 -4 7 0 7 12 0 11 -5 58 -9 107 -9 48 0 89 -2 91 -4 3 -2 52 -4
110 -3 64 0 102 -4 99 -10 -4 -5 -1 -6 6 -1 18 11 71 13 71 2 0 -5 6 -4 14 2
8 7 17 8 20 3 5 -9 59 -8 75 3 6 3 11 3 11 -2 0 -10 106 -11 115 -1 4 4 15 4
24 -1 9 -5 34 -9 56 -9 293 -3 352 -5 364 -16 10 -7 13 -7 8 0 -4 8 22 11 88
10 52 0 95 -5 95 -10 0 -5 6 -4 13 1 6 6 27 9 45 7 17 -1 32 1 32 6 0 4 11 7
24 6 13 -2 40 5 61 15 21 10 42 16 46 13 5 -3 9 0 9 6 0 6 4 9 9 5 6 -3 14 3
20 12 6 10 11 14 11 9 0 -5 11 3 25 18 13 14 26 25 28 24 7 -6 36 30 30 36 -6
6 12 10 29 7 5 0 7 5 5 12 -1 6 3 11 10 10 7 -2 10 6 8 17 -2 12 0 18 5 15 5
-3 14 11 21 30 7 19 17 35 22 35 5 0 7 7 3 15 -3 8 -1 15 5 15 5 0 9 8 7 18
-2 9 2 16 7 15 6 -1 10 17 9 40 0 23 4 51 9 62 7 13 6 20 -1 23 -7 2 -8 11 -2
27 6 16 6 27 -1 31 -7 4 -6 10 1 19 8 9 8 15 0 20 -5 3 -10 15 -10 26 0 10 -6
19 -12 19 -9 0 -8 4 2 10 12 7 12 10 1 10 -8 0 -11 6 -7 15 3 9 -1 18 -9 21
-8 4 -12 10 -9 15 3 5 0 9 -5 9 -6 0 -11 3 -10 8 3 17 -14 51 -22 46 -5 -3 -9
2 -9 11 0 9 -4 13 -10 10 -6 -3 -7 1 -4 9 4 11 0 16 -10 16 -9 0 -16 6 -16 14
0 8 -9 18 -20 21 -11 3 -20 13 -20 21 0 8 -4 12 -10 9 -5 -3 -10 -1 -10 5 0 6
-5 8 -10 5 -6 -3 -10 0 -10 8 0 8 -8 14 -17 13 -10 0 -17 4 -16 11 2 7 -4 10
-12 7 -8 -4 -15 -1 -15 7 0 7 -3 9 -7 6 -3 -4 -15 1 -26 10 -11 10 -17 12 -13
6 10 -18 -10 -16 -28 3 -12 12 -16 12 -16 2 0 -8 -3 -9 -8 -3 -8 13 -63 18
-179 19 -50 0 -83 4 -83 11 0 7 -3 7 -8 0 -4 -6 -16 -11 -27 -11 -11 0 -23 5
-27 11 -5 6 -8 5 -8 -4 0 -10 -3 -11 -14 -2 -11 9 -16 9 -21 0 -6 -8 -10 -7
-16 2 -7 12 -9 12 -9 0 0 -10 -3 -11 -13 -3 -7 6 -18 7 -27 2 -7 -5 -24 -4
-38 1 -16 6 -29 6 -38 -2 -8 -6 -14 -7 -14 -2 0 5 -9 9 -20 10 -11 1 -20 -3
-20 -8 0 -6 -6 -7 -12 -2 -7 4 -40 8 -73 9 -33 1 -62 3 -65 4 -3 1 -9 2 -14 1
-35 -7 -87 -5 -90 4 -3 6 -5 6 -5 0 -1 -8 -70 -12 -91 -5 -3 1 -30 2 -60 2
-30 0 -58 5 -62 12 -5 7 -8 7 -8 0 0 -11 -54 -13 -65 -2 -4 4 -15 3 -25 -2
-10 -5 -20 -7 -23 -4 -10 11 -77 10 -77 -1 0 -5 -4 -4 -9 4 -6 9 -11 10 -15 2
-4 -6 -13 -8 -19 -4 -19 11 -111 11 -126 -1 -11 -8 -13 -8 -7 2 6 9 -1 12 -26
10 -19 -1 -39 2 -46 6 -7 4 -12 2 -12 -4 0 -8 -6 -8 -20 0 -15 8 -20 8 -20 -1
0 -7 -8 -5 -20 6 -20 18 -21 18 -13 -1 7 -19 6 -19 -21 0 -16 10 -25 12 -21 5
6 -9 3 -11 -8 -6 -9 3 -19 2 -23 -4 -4 -7 -12 -5 -23 5 -12 11 -20 13 -28 5
-8 -8 -13 -8 -17 0 -5 8 -13 8 -28 0 -16 -9 -23 -8 -29 2 -7 11 -9 11 -9 -1 0
-9 -3 -11 -8 -5 -8 12 -81 13 -99 2 -6 -4 -15 -2 -19 4 -5 8 -3 9 6 4 9 -5 11
-4 6 4 -4 6 -13 8 -19 4 -17 -11 -51 -10 -59 2 -5 6 -8 5 -8 -2 0 -7 -6 -10
-13 -7 -7 2 -40 6 -73 7 -32 1 -65 6 -71 10 -8 5 -13 3 -13 -4 0 -8 -5 -7 -17
2 -15 12 -16 12 -8 -1 8 -13 7 -13 -8 -1 -14 11 -17 11 -17 0 0 -9 -3 -10 -8
-4 -7 10 -31 12 -192 18 -36 1 -68 6 -71 11 -4 4 -16 3 -28 -3 -11 -7 -21 -8
-21 -3 0 5 -17 9 -37 10 -82 2 -109 5 -122 16 -11 8 -13 8 -7 -1 4 -8 2 -13
-8 -13 -8 0 -17 6 -19 13 -4 9 -6 9 -6 -1 -1 -10 -6 -10 -21 -2 -15 8 -20 8
-20 -2 0 -8 -3 -9 -8 -3 -4 6 -18 11 -31 13 -17 3 -21 0 -15 -10 6 -11 5 -11
-8 0 -9 7 -46 14 -82 15 -36 1 -66 5 -66 9 0 8 -27 4 -36 -5 -10 -10 -26 -9
-20 1 3 5 -18 10 -47 11 -100 4 -107 5 -107 15 0 6 -5 4 -10 -4 -5 -8 -10 -10
-10 -5 0 6 -18 11 -40 12 -28 1 -39 -2 -34 -10 3 -7 0 -5 -8 3 -7 9 -27 14
-47 13 -19 -1 -45 3 -57 8 -16 5 -24 5 -24 -2 0 -6 -5 -7 -12 -3 -6 4 -29 8
-49 9 -21 1 -46 8 -55 16 -10 8 -15 9 -11 3 7 -13 -57 -13 -70 -1 -11 12 -24
7 -17 -5 6 -10 5 -10 -7 -1 -9 7 -43 14 -77 15 -34 2 -62 6 -62 9 0 3 -18 5
-40 5 -22 -1 -40 2 -40 6 0 4 -7 5 -15 2 -8 -4 -22 -1 -29 5 -10 8 -16 9 -21
1 -4 -7 -12 -7 -26 0 -14 8 -19 7 -19 -2 0 -8 -3 -9 -8 -3 -8 11 -15 13 -66
17 -20 1 -36 7 -36 13 0 5 -4 4 -9 -4 -5 -7 -11 -9 -14 -4 -4 5 -27 9 -52 8
-25 0 -45 2 -45 5 0 3 -13 5 -30 4 -16 -1 -30 3 -30 8 0 6 -7 8 -15 5 -8 -4
-17 -2 -20 3 -3 6 -15 6 -30 0 -14 -5 -27 -6 -30 0 -3 5 -14 7 -25 5 -11 -2
-22 0 -24 4 -3 4 -21 7 -41 6 -19 0 -35 2 -35 5 0 4 -10 6 -22 5 -13 -1 -29 3
-37 9 -12 9 -13 8 -6 -4 7 -12 6 -13 -6 -4 -8 7 -26 12 -41 13 -55 3 -68 5
-68 11 0 3 -26 6 -57 7 -32 1 -59 6 -61 13 -3 8 -8 8 -18 -1 -9 -7 -14 -8 -14
-1 0 6 -11 9 -25 7 -14 -1 -25 1 -25 4 0 3 -12 6 -27 7 -33 1 -135 17 -153 24
-3 1 -13 2 -22 1 -10 -1 -18 1 -18 6 0 4 -20 8 -45 8 -25 0 -45 2 -45 6 0 3
-10 5 -22 4 -13 -1 -37 4 -54 11 -23 9 -35 9 -43 1 -7 -7 -11 -7 -11 -1 0 11
-6 13 -57 17 -18 1 -33 4 -33 7 0 3 -8 6 -17 7 -27 1 -76 10 -93 16 -8 3 -23
6 -32 6 -45 3 -58 6 -58 12 0 4 -6 7 -12 6 -44 -1 -88 4 -85 11 3 4 -7 8 -21
9 -50 3 -72 7 -72 15 0 4 -10 5 -22 3 -12 -3 -26 1 -30 8 -6 9 -8 9 -8 -1 0
-10 -4 -10 -22 0 -13 7 -27 11 -32 10 -4 -2 -15 3 -24 10 -13 11 -15 11 -7 -2
6 -12 5 -12 -5 -3 -7 6 -19 9 -26 6 -8 -3 -14 -1 -14 5 0 5 -11 8 -25 7 -14
-2 -27 1 -30 5 -3 5 -12 7 -20 3 -8 -3 -15 0 -15 7 0 10 -3 10 -15 0 -12 -10
-16 -9 -21 4 -3 9 -10 13 -15 10 -6 -3 -17 0 -26 8 -12 9 -15 9 -9 0 4 -6 2
-12 -3 -12 -6 0 -11 4 -11 9 0 6 -9 8 -20 6 -11 -2 -22 0 -25 5 -3 5 -13 6
-22 3 -10 -4 -14 -2 -10 4 4 7 0 10 -10 8 -10 -1 -24 3 -32 9 -12 9 -13 8 -6
-4 7 -13 6 -13 -7 -2 -9 7 -20 12 -24 11 -5 -1 -11 0 -14 1 -7 2 -31 8 -50 12
-8 2 -19 6 -25 9 -5 4 -18 5 -27 4 -9 -2 -19 4 -22 12 -5 12 -9 13 -20 4 -10
-8 -16 -9 -21 -1 -3 6 -11 8 -16 5 -5 -4 -9 2 -9 12 0 12 -3 14 -8 6 -8 -13
-29 -13 -49 0 -7 5 -13 5 -13 1 0 -4 -8 0 -19 10 -10 9 -25 14 -33 11 -8 -3
-28 0 -44 6 -16 7 -36 13 -44 15 -8 1 -26 5 -40 9 -14 3 -30 7 -37 9 -7 1 -15
5 -19 8 -3 4 -12 4 -20 1 -8 -3 -14 -1 -14 5 0 5 -11 10 -25 11 -48 3 -55 4
-55 14 0 5 -7 7 -15 4 -8 -4 -17 -2 -20 4 -4 5 -10 7 -15 4 -5 -3 -12 0 -15 6
-4 5 -13 8 -21 5 -7 -3 -19 0 -26 7 -7 7 -22 13 -33 15 -11 1 -28 3 -37 4 -10
1 -18 5 -18 8 0 3 -8 7 -17 8 -22 2 -44 7 -63 15 -8 3 -33 11 -55 18 -22 6
-43 17 -47 23 -5 7 -8 7 -8 -3 0 -11 -4 -11 -22 1 -13 8 -47 21 -75 27 -29 7
-53 17 -53 21 0 4 -9 6 -20 3 -12 -3 -20 0 -20 8 0 7 -3 9 -6 6 -4 -3 -15 -2
-26 4 -11 6 -32 13 -46 15 -15 3 -32 10 -39 16 -7 6 -13 8 -13 4 0 -4 -14 0
-30 9 -17 9 -30 12 -30 9 0 -4 -10 1 -22 12 -14 13 -19 14 -14 4 6 -12 5 -12
-6 1 -7 9 -18 14 -25 12 -6 -2 -25 3 -41 11 -16 8 -32 12 -36 9 -3 -4 -6 -1
-6 5 0 7 -8 12 -17 12 -10 0 -31 7 -47 15 -15 8 -32 12 -37 9 -5 -3 -12 1 -15
9 -3 8 -15 14 -27 13 -12 -2 -31 6 -41 16 -11 10 -15 18 -10 18 6 0 10 35 9
80 0 44 4 80 8 80 4 0 3 9 -3 20 -6 11 -7 20 -3 20 4 0 8 33 8 73 0 39 4 75
10 79 6 5 5 8 -4 8 -10 0 -11 3 -2 14 9 10 9 16 1 21 -8 5 -8 11 1 21 9 11 8
14 -2 14 -9 0 -10 3 -4 8 6 4 10 25 10 47 0 22 3 48 7 57 5 9 4 19 -2 23 -5 3
-7 12 -3 20 3 9 0 22 -7 30 -11 13 -10 14 1 10 11 -4 14 4 12 36 -1 23 -4 48
-7 56 -3 8 -1 11 5 8 6 -5 8 7 5 34 -4 31 -2 40 7 34 9 -5 9 -3 0 8 -10 12
-10 18 -1 27 9 9 9 12 -3 12 -12 0 -12 2 1 10 13 9 13 10 0 10 -13 0 -13 1 0
10 10 6 11 10 3 10 -9 0 -10 7 -5 23 5 12 7 39 6 59 -1 24 2 35 9 31 6 -4 7
-1 1 8 -12 19 -11 109 1 109 6 0 3 5 -5 10 -13 9 -13 10 0 10 13 0 13 1 0 10
-8 5 -10 10 -5 10 6 0 10 22 9 50 0 28 3 53 8 56 4 3 4 13 -2 23 -6 12 -5 22
1 28 8 8 8 13 0 17 -7 5 -7 15 -1 32 7 18 7 23 -1 18 -8 -4 -8 -1 -2 12 11 23
10 64 -1 83 -6 9 -5 12 2 7 7 -4 10 11 9 49 -2 30 0 55 3 55 3 0 5 34 4 75 -1
49 3 75 10 75 8 0 7 3 -1 8 -14 9 -12 44 2 54 6 5 5 8 -3 8 -7 0 -10 5 -7 11
4 5 9 72 11 147 2 75 6 148 9 160 4 18 2 22 -7 16 -10 -6 -9 -3 1 9 7 9 10 17
5 17 -5 0 -2 5 6 10 8 5 10 10 4 10 -14 0 -13 60 1 60 5 0 4 4 -3 9 -8 4 -14
12 -14 16 0 4 6 12 14 16 11 7 11 9 -1 9 -11 0 -11 3 -1 15 10 12 10 15 0 15
-10 0 -10 3 0 15 10 12 10 15 -1 15 -9 0 -10 3 -4 8 6 4 11 46 10 97 0 50 3
102 7 118 4 18 3 27 -5 27 -8 0 -8 3 -2 8 6 4 10 37 10 74 0 39 4 68 10 68 6
0 6 3 0 8 -9 6 -12 26 -5 35 6 7 5 47 -1 47 -5 0 -5 10 -1 22 5 13 8 53 7 91
-1 39 3 67 9 67 6 0 6 4 -1 11 -6 6 -7 25 -3 49 4 24 3 43 -3 49 -8 8 -8 11 0
11 13 0 12 18 -1 39 -6 10 -5 12 2 7 8 -5 12 1 12 14 0 14 -4 19 -12 14 -10
-6 -10 -5 -1 8 7 8 10 18 6 21 -3 4 0 13 6 21 7 8 8 16 4 19 -10 6 -9 59 1 75
4 7 2 12 -5 12 -8 0 -7 5 2 17 12 14 12 16 0 8 -10 -6 -12 -4 -6 6 5 7 10 59
12 114 6 195 9 255 16 261 4 4 1 14 -6 22 -9 12 -9 16 0 19 9 3 10 10 3 23 -6
10 -7 21 -3 23 5 3 8 70 8 149 0 115 3 146 15 156 8 8 10 11 4 8 -7 -4 -11 13
-10 49 1 30 5 55 11 55 7 0 7 3 0 8 -13 9 -16 42 -4 42 6 0 5 9 -1 20 -8 14
-8 20 0 20 7 0 8 6 1 18 -6 11 -6 24 0 35 7 12 6 17 -1 17 -6 0 -8 5 -4 12 13
21 13 88 1 88 -8 0 -7 4 2 9 8 5 12 19 9 35 -3 15 -1 26 6 26 6 0 4 5 -4 10
-13 8 -13 10 0 10 10 0 11 3 3 11 -7 7 -8 20 -3 34 5 14 4 27 -3 34 -7 7 -7
11 0 11 6 0 9 22 8 55 -1 31 2 58 7 61 5 3 4 12 -2 19 -7 8 -7 16 -2 19 6 3 7
20 2 40 -5 22 -4 38 4 46 8 8 7 13 -4 20 -12 8 -12 10 -1 10 10 0 11 3 2 13
-6 8 -8 17 -4 21 4 4 8 40 9 80 0 40 4 78 8 84 4 7 1 12 -6 12 -9 0 -9 3 2 10
13 9 13 10 0 10 -12 0 -13 2 -1 9 11 7 11 9 0 14 -12 5 -12 6 0 6 11 1 11 4 1
16 -8 10 -9 15 -2 15 6 0 9 7 6 15 -4 8 -1 15 6 15 7 0 6 6 -4 16 -19 18 -21
28 -4 18 7 -5 9 -2 6 8 -4 8 -2 21 2 28 5 8 5 21 0 30 -5 9 -5 22 0 30 5 9 5
19 -2 27 -8 10 -7 13 3 13 10 0 10 3 1 12 -7 7 -8 17 -1 30 7 12 6 18 -1 18
-7 0 -8 6 -1 19 10 18 6 64 -6 85 -4 6 2 4 12 -4 13 -10 16 -11 11 -2 -11 19
-14 72 -3 72 4 0 5 5 1 12 -4 6 -6 37 -4 67 1 31 3 86 3 123 1 36 5 64 10 61
5 -3 4 4 -2 15 -7 14 -8 23 -1 27 6 4 7 13 1 23 -6 11 -5 24 1 36 6 10 6 21 2
25 -13 9 -16 34 -4 26 13 -8 13 1 -1 27 -6 11 -7 18 -2 15 6 -4 9 26 9 73 -1
44 1 80 4 80 3 0 4 45 3 100 0 55 3 102 8 105 4 3 4 17 -1 30 -7 17 -6 25 1
25 8 0 8 4 0 14 -8 10 -9 16 -1 21 7 4 7 12 0 26 -6 10 -7 19 -2 19 5 0 9 7 9
15 0 8 -4 15 -9 15 -5 0 -6 5 -2 11 13 21 13 100 1 92 -7 -4 -6 0 1 10 8 9 11
21 7 27 -3 5 0 10 7 10 8 0 9 3 3 8 -10 7 -15 92 -5 92 3 0 5 45 5 101 0 55 3
105 7 112 3 6 2 19 -3 28 -6 12 -5 20 2 25 8 4 7 9 -2 15 -8 5 -9 9 -4 9 11 0
13 46 2 56 -3 4 -3 14 1 23 4 9 8 60 7 113 0 54 2 98 5 98 7 0 4 76 -4 89 -4
6 -3 11 3 11 10 0 9 25 -2 36 -3 4 -3 14 2 23 5 9 7 24 6 34 -2 9 2 17 8 17 9
0 9 2 0 8 -13 8 -13 29 0 50 5 7 3 12 -3 12 -7 0 -8 6 -1 18 5 10 6 24 1 32
-5 8 -5 21 0 30 6 11 5 21 -2 28 -7 7 -8 12 -2 12 5 0 9 35 9 79 0 45 4 77 9
74 5 -4 6 0 1 7 -11 18 -13 60 -2 60 4 0 3 9 -3 20 -6 11 -7 20 -3 20 5 0 7
27 5 60 -2 44 1 60 10 60 9 0 9 3 -2 10 -13 9 -13 11 0 20 8 5 10 10 5 10 -6
0 -11 11 -11 25 0 14 5 25 11 25 5 0 3 5 -5 10 -13 9 -13 10 0 10 12 0 12 2 2
8 -9 6 -10 16 -4 32 5 13 6 39 2 57 -5 19 -4 36 2 39 5 4 5 11 -1 18 -6 7 -8
16 -4 20 12 12 11 60 -1 75 -9 12 -8 13 3 7 10 -7 12 -3 6 13 -4 13 -2 21 5
21 6 0 8 5 4 12 -10 15 -11 78 -1 78 4 0 3 9 -3 20 -8 15 -8 20 2 20 9 0 9 3
-2 10 -8 5 -10 10 -5 10 6 0 9 29 8 70 -1 38 2 72 8 76 6 4 6 11 -2 20 -9 11
-9 17 0 28 9 11 9 16 0 21 -8 6 -7 10 2 16 9 6 10 9 2 9 -8 0 -9 9 -3 29 4 15
4 34 0 42 -5 7 -4 21 1 31 7 13 6 18 -3 18 -8 0 -9 3 -3 8 6 4 10 51 10 109 0
62 4 103 10 103 6 0 3 5 -5 10 -13 9 -13 10 0 10 13 0 13 1 0 10 -8 5 -10 10
-5 10 6 0 10 41 9 105 0 66 3 102 9 98 6 -4 7 -1 2 7 -11 18 -13 80 -3 80 5 0
4 8 -1 19 -6 10 -7 21 -3 25 10 11 8 50 -3 58 -6 5 -5 8 3 8 7 0 10 5 7 10 -7
11 18 40 35 40 6 0 13 7 16 15 5 13 9 13 22 3 13 -10 14 -10 8 0 -5 8 2 14 23
18 17 4 29 11 28 17 -1 6 5 12 13 13 28 2 60 16 60 25 0 5 6 9 14 9 7 0 19 7
26 15 7 9 19 14 26 11 6 -2 20 3 30 12 11 9 28 19 39 20 11 2 22 8 23 13 2 5
12 9 23 9 10 0 19 4 19 9 0 5 14 12 30 16 17 4 30 11 30 16 0 5 3 8 8 8 16 -4
72 24 72 34 0 7 5 5 10 -3 5 -8 10 -10 10 -3 0 10 56 38 73 34 4 0 7 4 7 10 0
6 7 9 15 5 8 -3 15 -2 15 2 0 9 49 32 67 32 7 0 13 5 13 12 0 6 3 8 6 5 4 -3
16 -1 28 5 11 7 24 11 29 10 4 -1 7 3 7 9 0 5 4 8 9 4 5 -3 15 1 23 8 7 8 19
12 26 9 6 -2 12 0 12 5 0 5 10 9 22 10 11 1 24 6 27 10 3 5 32 17 64 28 31 11
57 23 57 27 0 4 7 5 15 2 8 -4 15 -1 15 6 0 7 7 10 15 6 8 -3 15 0 15 6 0 6 3
8 7 5 3 -4 17 0 30 8 13 9 23 13 23 10 0 -3 14 1 30 10 17 9 30 13 30 10 0 -3
18 4 40 15 22 11 40 18 40 15 0 -3 12 3 27 12 17 12 24 13 19 4 -6 -8 1 -7 18
4 14 10 26 13 26 9 0 -5 4 -3 8 4 5 7 22 14 39 15 17 1 29 6 25 11 -3 5 2 7
11 3 10 -3 17 -2 17 4 0 6 4 8 9 4 5 -3 13 0 16 6 4 5 13 8 21 5 8 -3 17 1 20
9 4 8 10 13 15 10 4 -3 25 1 45 10 20 8 40 12 45 9 5 -3 9 0 9 6 0 6 5 8 10 5
6 -3 10 -2 10 2 0 5 11 10 26 11 14 1 33 6 43 12 10 5 21 6 25 3 3 -3 6 -1 6
4 0 6 8 10 17 9 10 -2 31 4 48 13 16 9 40 16 53 15 12 -1 22 3 22 8 0 5 5 6
10 3 6 -4 17 -2 24 4 7 6 25 12 40 13 14 1 26 6 26 10 0 4 3 7 8 6 12 -4 126
25 140 35 7 5 15 7 19 4 3 -3 19 1 35 9 23 12 28 12 22 2 -6 -10 -5 -11 8 -1
8 7 18 10 21 6 4 -3 7 -2 7 4 0 6 8 10 18 10 9 -1 36 5 60 12 23 6 48 9 54 5
6 -4 8 -3 4 4 -4 6 1 11 11 11 54 2 73 6 73 14 0 5 11 7 25 5 14 -3 25 -2 25
3 0 4 8 8 18 8 42 2 62 6 62 11 0 4 6 7 13 7 13 1 90 13 110 17 7 2 20 6 29
10 9 4 22 5 28 1 5 -3 10 -3 10 2 0 8 9 10 78 15 17 2 32 5 32 8 0 4 10 6 23
7 23 0 81 10 107 18 8 3 33 7 55 10 22 3 51 8 65 10 34 4 109 16 140 21 14 2
48 6 75 9 28 3 57 8 65 11 16 6 117 16 163 16 15 0 27 4 27 8 0 4 18 6 40 4
22 -2 40 0 40 4 0 4 26 8 58 9 31 1 84 4 117 7 101 11 303 24 456 30 36 1 70
6 76 9 7 4 15 3 18 -3 5 -8 11 -7 21 1 11 9 14 9 14 0 0 -8 5 -9 18 -2 13 7
23 6 30 -1 7 -7 12 -8 12 -2 0 5 23 9 50 9 28 0 50 -3 50 -8 0 -4 6 -5 12 0
18 11 148 11 148 0 0 -6 5 -5 13 0 13 11 112 11 123 1 3 -4 17 -3 30 2 17 7
24 6 24 -3 0 -8 3 -8 8 -2 8 12 52 13 70 2 6 -5 12 -4 12 1 0 5 7 9 15 9 8 0
15 -4 15 -8 0 -10 34 -6 42 6 5 7 8 7 8 0 0 -6 36 -11 83 -12 203 -6 237 -8
237 -15 0 -8 27 -4 36 5 4 4 13 2 20 -4 8 -7 14 -7 19 1 5 8 11 8 21 0 7 -7
19 -10 26 -7 7 2 23 0 36 -4 15 -6 22 -5 22 3 0 9 3 9 11 1 6 -6 17 -9 24 -7
7 3 16 1 20 -5 4 -8 12 -8 26 -1 13 8 19 7 19 0 0 -7 6 -8 19 -1 10 6 22 7 26
3 3 -4 19 -7 34 -8 15 0 33 -4 41 -9 9 -5 15 -4 18 3 2 7 9 9 15 5 7 -4 19 -9
27 -10 25 -4 133 -15 168 -16 17 -1 32 -4 32 -8 0 -3 19 -5 43 -4 23 0 47 -2
52 -5 6 -2 21 -5 35 -6 35 -2 81 -12 88 -18 3 -3 11 -1 18 5 8 6 14 7 18 0 4
-6 13 -8 21 -4 8 3 15 0 15 -7 0 -10 3 -10 15 0 8 7 15 8 15 3 0 -5 10 -9 23
-10 12 -1 43 -3 70 -6 30 -3 47 0 47 7 0 6 4 5 9 -3 5 -8 11 -9 15 -3 4 6 16
9 27 7 12 -3 30 0 40 6 14 7 19 6 19 -3 1 -8 4 -7 10 3 6 10 20 15 35 14 14
-2 23 0 20 5 -3 5 10 13 29 20 19 6 40 17 46 25 7 8 17 12 23 8 6 -4 8 0 4 10
-4 12 0 18 17 23 13 3 29 16 36 29 7 14 17 22 22 19 4 -3 8 2 8 11 0 9 10 26
23 37 12 11 15 16 7 12 -8 -4 -5 3 8 16 13 12 21 29 18 36 -3 8 0 17 7 20 11
4 16 18 19 62 1 6 6 12 12 12 6 0 4 5 -4 10 -12 8 -12 10 -1 10 8 0 11 7 8 20
-3 11 0 20 6 20 7 0 5 5 -3 10 -13 8 -13 10 -1 10 11 0 12 3 4 11 -7 7 -8 21
-3 40 5 17 5 31 -1 35 -5 3 -7 10 -4 15 4 5 0 9 -7 9 -9 0 -9 3 2 10 10 6 11
10 3 10 -7 0 -13 11 -13 25 0 14 -4 25 -10 25 -5 0 -7 6 -4 14 3 7 -2 20 -10
29 -8 8 -12 17 -9 21 3 3 -2 8 -11 12 -9 3 -13 10 -11 15 3 4 -3 17 -15 29
-11 11 -20 24 -20 29 0 4 -14 19 -32 32 -17 13 -43 34 -56 46 -14 13 -28 20
-33 17 -5 -3 -9 0 -9 6 0 6 -4 8 -10 5 -5 -3 -10 1 -10 9 0 9 -7 13 -20 11
-11 -2 -20 0 -20 6 0 5 -9 9 -20 9 -11 0 -20 4 -20 8 0 5 -7 9 -15 9 -8 0 -15
-5 -15 -11 0 -6 -4 -6 -8 2 -5 7 -23 14 -40 15 -18 1 -32 6 -32 10 0 4 -10 3
-21 -4 -17 -9 -20 -8 -14 2 6 9 2 11 -13 7 -12 -4 -24 -3 -27 1 -2 4 -14 7
-27 6 -13 -1 -29 3 -37 9 -12 9 -13 8 -6 -4 8 -13 7 -13 -8 -1 -14 11 -17 11
-17 0 0 -10 -2 -11 -8 -2 -4 6 -20 10 -34 9 -15 -2 -25 0 -22 5 2 4 -9 6 -26
4 -17 -2 -30 1 -30 7 0 6 -6 6 -15 -2 -8 -7 -15 -9 -15 -4 0 5 -12 10 -27 11
-81 4 -119 9 -130 16 -8 5 -13 3 -13 -5 0 -8 -3 -9 -8 -3 -7 10 -28 14 -109
17 -24 1 -43 7 -43 13 0 5 -5 3 -10 -5 -9 -13 -10 -13 -10 0 0 13 -1 13 -10 0
-7 -11 -10 -11 -10 -2 0 7 -4 10 -10 7 -5 -3 -10 0 -10 7 0 8 -3 9 -8 3 -8
-12 -81 -13 -99 -2 -6 4 -18 4 -27 1 -9 -4 -16 -1 -16 6 0 10 -3 10 -14 1 -10
-9 -16 -9 -21 -1 -5 8 -10 8 -20 0 -10 -8 -14 -7 -17 2 -4 10 -9 10 -23 -2
-13 -10 -16 -11 -11 -2 6 11 -4 13 -52 11 -35 -1 -67 2 -75 9 -8 7 -17 9 -21
5 -11 -12 -70 -10 -78 1 -5 7 -8 5 -8 -4 0 -13 -1 -13 -10 0 -9 13 -10 13 -10
0 0 -12 -2 -12 -9 -1 -7 10 -13 11 -31 1 -12 -7 -20 -8 -17 -3 9 14 -66 12
-75 -1 -5 -8 -8 -7 -8 2 0 9 -13 12 -38 11 -21 -2 -43 0 -49 4 -6 4 -14 1 -16
-5 -3 -7 -6 -8 -6 -3 -1 6 -30 9 -71 9 -50 -1 -68 1 -63 10 5 8 3 8 -8 0 -23
-18 -51 -26 -43 -12 5 8 2 9 -9 5 -10 -4 -17 -1 -17 6 0 8 -3 8 -8 2 -4 -6
-16 -11 -27 -11 -11 0 -23 5 -27 11 -5 6 -8 6 -8 -2 0 -13 -18 -12 -39 1 -10
6 -12 5 -7 -3 10 -15 -25 -11 -36 4 -5 7 -8 6 -8 -1 0 -12 -78 -13 -96 -2 -6
4 -14 4 -18 1 -12 -12 -40 -12 -55 0 -9 7 -12 7 -8 1 4 -7 -10 -11 -41 -11
-163 -2 -231 -7 -225 -17 5 -8 3 -8 -8 0 -19 14 -61 16 -53 2 4 -6 -1 -6 -14
1 -25 13 -35 14 -28 3 7 -12 -38 -9 -46 3 -5 6 -8 6 -8 -1 0 -6 -7 -11 -15
-11 -8 0 -15 5 -15 10 0 6 -5 6 -12 -1 -7 -5 -33 -10 -58 -11 -142 -4 -170 -7
-170 -15 0 -6 -5 -5 -11 1 -7 7 -20 8 -34 3 -12 -5 -34 -7 -49 -6 -14 2 -26 0
-26 -3 0 -4 -17 -6 -37 -5 -21 0 -47 -3 -58 -9 -13 -7 -20 -6 -23 2 -2 6 -9 8
-15 4 -12 -7 -52 -13 -92 -14 -11 0 -23 -5 -27 -12 -6 -9 -8 -9 -8 1 0 10 -5
10 -20 2 -15 -8 -20 -8 -20 2 0 8 -3 9 -8 3 -4 -5 -18 -11 -32 -13 -14 -1 -43
-4 -65 -7 -22 -2 -58 -6 -80 -7 -22 -2 -46 -10 -53 -18 -8 -8 -11 -9 -7 -2 8
15 -10 16 -37 1 -16 -9 -19 -8 -12 3 6 10 5 11 -7 2 -8 -6 -24 -10 -36 -8 -13
2 -23 -1 -23 -7 0 -7 -6 -7 -17 2 -11 10 -14 10 -9 2 5 -9 0 -13 -16 -14 -13
0 -39 -2 -58 -5 -19 -3 -47 -6 -62 -7 -16 -1 -28 -4 -28 -7 0 -4 -10 -7 -22
-7 -13 -1 -39 -4 -58 -7 -19 -3 -44 -7 -55 -8 -11 -2 -23 -7 -27 -13 -5 -6 -8
-5 -8 3 0 6 -5 12 -11 12 -5 0 -7 -4 -4 -10 4 -6 -6 -8 -24 -6 -17 2 -28 -1
-25 -5 5 -8 -23 -12 -78 -12 -10 0 -18 -3 -18 -8 0 -4 -9 -6 -20 -4 -11 2 -22
0 -25 -5 -3 -5 -14 -7 -25 -5 -11 2 -20 1 -20 -3 0 -7 -24 -11 -82 -15 -16 -1
-28 -6 -28 -10 0 -5 -10 -7 -22 -6 -13 2 -32 -2 -43 -8 -11 -6 -28 -9 -37 -8
-10 2 -18 -2 -18 -8 0 -7 -5 -5 -10 3 -5 8 -10 10 -10 4 0 -10 -72 -30 -92
-25 -5 0 -8 -3 -8 -7 0 -5 -15 -8 -34 -7 -19 0 -32 -3 -29 -8 3 -5 -1 -8 -8
-6 -29 3 -50 -1 -44 -11 3 -6 -1 -7 -10 -4 -8 4 -23 0 -32 -7 -14 -12 -15 -12
-9 -1 7 11 4 12 -13 3 -12 -7 -25 -9 -30 -6 -5 3 -11 1 -13 -5 -1 -5 -21 -12
-43 -16 -22 -3 -48 -10 -58 -15 -9 -6 -22 -7 -27 -4 -6 3 -10 2 -10 -3 0 -6
-13 -9 -29 -8 -17 1 -28 -2 -25 -6 3 -4 2 -8 -3 -9 -8 -1 -22 -4 -63 -14 -14
-4 -33 -8 -42 -9 -10 -1 -21 -5 -24 -9 -4 -4 -18 -7 -31 -7 -12 0 -23 -5 -23
-11 0 -6 -7 -9 -15 -6 -8 4 -17 2 -20 -4 -4 -5 -10 -7 -15 -4 -5 3 -11 1 -15
-4 -3 -6 -12 -8 -20 -4 -8 3 -15 0 -15 -6 0 -6 -7 -8 -17 -4 -9 4 -14 2 -11
-3 4 -5 -4 -10 -15 -10 -32 -3 -51 -8 -58 -16 -3 -5 -17 -9 -32 -10 -15 -1
-27 -6 -27 -11 0 -4 -4 -6 -9 -2 -5 3 -12 1 -16 -5 -4 -6 -10 -8 -15 -5 -5 3
-20 -1 -33 -10 -13 -8 -27 -12 -31 -8 -4 4 -11 2 -15 -5 -4 -7 -19 -14 -32
-14 -13 -1 -28 -5 -34 -8 -15 -11 -120 -44 -121 -39 -1 2 -12 -5 -25 -16 -13
-12 -19 -14 -14 -5 8 13 6 13 -8 2 -9 -8 -22 -10 -28 -6 -8 4 -9 3 -5 -4 4 -7
4 -12 -1 -13 -4 0 -17 -3 -28 -6 -11 -3 -30 -6 -42 -7 -11 0 -19 -4 -16 -8 4
-8 -12 -12 -36 -9 -7 2 -10 -2 -6 -8 6 -10 -8 -16 -29 -12 -5 1 -12 -3 -16 -9
-4 -6 -18 -12 -31 -13 -13 -1 -34 -8 -47 -15 -12 -7 -27 -10 -32 -7 -6 4 -13
-1 -16 -9 -3 -9 -14 -16 -24 -16 -11 0 -22 -5 -25 -10 -4 -6 -11 -8 -16 -5 -5
4 -9 1 -9 -5 0 -6 -4 -8 -10 -5 -5 3 -10 1 -10 -5 0 -6 -5 -8 -10 -5 -6 4 -16
2 -23 -3 -7 -5 -33 -17 -59 -27 -27 -10 -48 -21 -48 -26 0 -4 -9 -6 -19 -4
-11 2 -22 -3 -25 -10 -3 -8 -14 -12 -26 -10 -11 2 -18 0 -15 -4 2 -5 -8 -11
-24 -14 -16 -3 -35 -12 -42 -19 -8 -7 -22 -14 -32 -16 -9 -2 -39 -14 -66 -27
-27 -14 -54 -25 -60 -25 -6 0 -11 -4 -11 -9 0 -6 -9 -8 -21 -6 -14 3 -19 0
-16 -8 3 -8 -4 -13 -17 -13 -14 0 -22 6 -22 18 0 10 5 18 11 18 5 0 4 4 -3 8
-9 7 -10 15 -3 35 8 20 7 27 -2 27 -8 0 -8 3 2 9 9 6 10 11 2 15 -6 4 -8 12
-4 19 3 6 8 76 9 155 1 79 5 146 8 149 3 4 1 12 -5 20 -6 7 -8 13 -3 13 5 0 9
31 8 70 -1 44 3 67 9 63 6 -4 7 -1 1 8 -12 19 -12 33 1 41 6 5 5 8 -3 8 -9 0
-10 5 -3 18 7 13 6 23 -1 30 -9 9 -8 12 2 12 13 0 13 2 0 10 -13 9 -13 10 0
10 13 0 13 1 0 10 -11 7 -11 10 -2 10 9 0 10 5 2 19 -5 11 -6 22 -1 25 10 7 9
56 -2 74 -5 6 -4 12 2 12 5 0 8 9 6 20 -2 11 1 22 6 25 5 4 6 11 2 18 -7 12
-11 137 -3 137 3 0 4 26 3 57 0 32 4 64 10 72 9 11 9 13 1 8 -15 -9 -14 65 1
75 7 5 6 8 0 8 -6 0 -11 9 -12 20 -1 11 2 18 7 15 4 -3 4 11 0 30 -4 19 -6 36
-3 39 3 2 6 68 8 146 2 78 6 145 9 148 3 3 1 11 -5 19 -6 7 -8 13 -3 13 5 0 9
24 8 53 0 28 4 60 9 71 6 12 6 16 -1 12 -6 -4 -9 8 -7 32 2 20 4 37 5 37 1 0
3 12 4 28 1 15 -2 27 -7 27 -5 0 -5 6 2 13 8 10 7 17 -1 25 -7 7 -8 12 -3 12
6 0 10 28 9 63 0 34 5 68 10 76 8 11 8 13 -1 8 -8 -5 -11 0 -10 13 1 11 6 20
12 20 6 0 7 3 0 8 -13 9 -13 72 0 72 5 0 3 5 -5 10 -8 5 -10 10 -5 10 6 0 10
43 10 111 0 61 4 113 8 116 5 3 3 9 -4 14 -11 7 -11 9 1 9 12 0 12 2 1 9 -10
7 -11 13 -1 31 10 18 9 24 -1 31 -9 6 -10 12 -4 17 7 4 10 61 10 144 0 76 3
138 7 138 3 0 4 10 0 22 -4 16 -2 19 9 14 8 -4 5 0 -5 8 -11 9 -15 16 -10 16
6 0 9 18 8 40 -1 22 3 43 8 46 5 3 4 12 -3 20 -9 11 -9 17 1 29 7 8 8 15 3 15
-5 0 -10 7 -10 15 0 8 5 15 10 15 5 0 4 7 -3 15 -10 12 -10 15 1 15 12 0 12 2
1 9 -8 4 -14 12 -14 16 0 4 6 12 14 16 11 7 11 9 -1 9 -7 0 -11 6 -7 15 3 8 0
15 -7 15 -8 0 -8 3 2 9 10 6 10 10 1 16 -6 4 -9 13 -6 21 3 8 1 14 -5 14 -6 0
-9 6 -6 14 3 8 1 16 -5 18 -6 2 -13 15 -15 28 -2 13 -9 28 -16 32 -6 4 -8 8
-3 8 5 0 3 6 -3 13 -6 8 -8 17 -4 21 4 4 -1 4 -11 0 -14 -5 -17 -4 -12 4 4 7
2 12 -5 12 -7 0 -9 3 -6 7 4 3 -5 15 -20 25 -17 10 -22 18 -13 18 8 0 -2 10
-23 23 -21 13 -35 26 -31 30 4 3 -3 4 -15 2 -12 -2 -19 0 -16 6 4 5 -1 9 -9 9
-9 0 -16 5 -16 10 0 6 -9 10 -20 10 -11 0 -20 5 -20 10 0 6 -6 10 -12 8 -7 -1
-23 3 -35 10 -13 7 -23 10 -23 6 0 -3 -7 -1 -15 6 -12 10 -15 10 -15 0 0 -9
-8 -7 -26 5 -15 9 -24 13 -20 7 7 -12 -54 -10 -74 3 -8 5 -11 4 -6 -3z m-593
-5450 c-5 -2 -6 -16 -1 -33 5 -16 6 -29 2 -29 -4 0 -7 -34 -6 -75 1 -48 -3
-75 -10 -75 -7 0 -7 -3 -1 -8 15 -11 17 -32 5 -47 -6 -7 -7 -15 -3 -18 9 -6 9
-104 0 -114 -4 -3 -2 -12 4 -20 8 -9 8 -13 1 -13 -11 0 -9 -31 3 -49 3 -5 1
-12 -3 -15 -5 -3 -8 -18 -7 -33 1 -15 -2 -33 -7 -40 -5 -6 -5 -14 0 -17 5 -3
8 -18 6 -33 -2 -16 -4 -67 -5 -115 -1 -57 -6 -88 -13 -88 -8 0 -8 -3 0 -8 10
-7 14 -153 3 -146 -3 1 -6 -3 -6 -11 0 -8 4 -15 9 -15 5 0 6 -10 2 -22 -3 -12
-8 -83 -9 -158 -1 -75 -4 -141 -6 -146 -2 -5 -4 -57 -4 -116 0 -67 -4 -108
-10 -108 -7 0 -7 -3 0 -8 9 -6 12 -42 5 -57 -7 -14 -5 -31 4 -43 6 -8 6 -16 0
-20 -5 -4 -9 -47 -9 -95 0 -49 -2 -90 -6 -92 -3 -2 -3 -27 1 -55 4 -28 4 -53
1 -55 -3 -1 -6 -39 -5 -84 0 -48 -3 -78 -9 -74 -5 3 -4 -4 2 -16 7 -12 9 -26
5 -32 -9 -16 -11 -79 -1 -79 4 0 5 -5 1 -12 -4 -6 -9 -70 -11 -142 -5 -200
-10 -351 -13 -351 -1 0 -3 -12 -4 -27 -1 -16 2 -28 7 -28 5 0 4 -7 -3 -15 -10
-12 -10 -15 0 -15 10 0 10 -3 1 -14 -8 -10 -9 -16 -1 -21 6 -3 7 -11 3 -18 -6
-11 -11 -121 -16 -359 -1 -65 -4 -118 -7 -118 -3 0 -5 -27 -5 -60 0 -33 4 -60
8 -60 5 0 5 -6 0 -12 -4 -7 -8 -56 -9 -110 -1 -53 -4 -100 -6 -105 -3 -4 -4
-28 -3 -53 2 -25 -3 -51 -9 -59 -7 -10 -7 -13 0 -8 7 4 10 -11 10 -43 -1 -28
-5 -50 -10 -50 -5 0 -3 -6 3 -13 6 -8 8 -16 5 -19 -10 -10 -11 -88 -1 -88 6 0
6 -5 0 -12 -5 -7 -9 -44 -9 -83 1 -38 -3 -73 -9 -77 -6 -5 -4 -8 5 -8 13 0 13
-1 0 -10 -11 -7 -11 -10 -2 -10 9 0 10 -5 3 -18 -7 -13 -6 -23 1 -30 8 -8 8
-12 1 -12 -6 0 -9 -17 -8 -42 2 -24 -1 -48 -7 -55 -5 -6 -5 -14 0 -17 10 -6 9
-87 -2 -104 -4 -7 -2 -12 4 -12 6 0 8 -5 4 -12 -4 -6 -9 -68 -11 -137 -4 -144
-10 -284 -13 -291 -1 -3 -1 -9 0 -15 6 -27 5 -52 -2 -67 -6 -12 -5 -18 2 -18
6 0 8 -4 5 -10 -12 -19 -13 -80 -1 -80 8 0 8 -2 0 -8 -6 -4 -11 -32 -12 -62
-1 -58 -8 -270 -17 -480 -3 -69 -7 -166 -9 -216 -2 -51 -6 -97 -10 -102 -3 -6
-2 -13 3 -17 6 -3 7 -15 1 -29 -5 -15 -5 -27 3 -35 6 -6 7 -11 1 -11 -5 0 -9
-44 -9 -103 0 -56 -3 -117 -6 -134 -5 -22 -3 -33 5 -33 7 0 8 -3 1 -8 -6 -4
-11 -40 -10 -80 0 -41 -3 -76 -7 -78 -4 -3 -3 -16 2 -29 5 -14 6 -25 2 -25
-10 0 -8 -92 2 -109 6 -9 5 -12 -1 -8 -7 4 -11 -24 -11 -79 -1 -47 -4 -89 -7
-94 -3 -5 -1 -11 5 -15 6 -4 7 -11 4 -17 -4 -6 -8 -37 -10 -69 -1 -32 -6 -63
-10 -70 -4 -7 -3 -10 2 -7 5 4 9 -7 9 -23 0 -16 -3 -29 -7 -29 -4 0 -3 -13 2
-29 4 -16 5 -32 2 -36 -4 -4 -8 -25 -8 -48 -2 -58 -12 -316 -19 -472 -3 -71
-7 -171 -9 -222 -2 -50 -7 -97 -11 -104 -6 -8 -4 -10 5 -4 9 6 10 2 5 -16 -12
-38 -13 -89 -1 -89 8 0 8 -2 0 -8 -6 -4 -12 -46 -13 -97 -2 -49 -4 -126 -5
-170 -1 -45 -6 -86 -10 -93 -4 -7 -2 -12 4 -12 6 0 8 -5 3 -12 -11 -19 -12
-37 -2 -44 5 -3 5 -13 -1 -25 -8 -13 -7 -25 1 -40 6 -12 7 -19 2 -16 -5 3 -10
-28 -11 -71 -2 -83 -11 -102 -35 -78 -9 9 -23 16 -31 16 -9 0 -16 5 -16 12 0
6 -3 8 -6 5 -4 -3 -18 2 -32 13 -13 11 -28 17 -33 14 -5 -3 -9 0 -9 5 0 6 -7
11 -15 11 -9 0 -18 7 -21 15 -4 8 -10 13 -14 10 -4 -2 -18 4 -30 15 -13 11
-29 20 -37 20 -8 0 -11 4 -8 10 3 6 -1 7 -9 4 -9 -4 -18 1 -22 10 -3 9 -10 13
-15 10 -5 -3 -9 0 -9 6 0 6 -5 8 -10 5 -6 -3 -10 -1 -10 4 0 6 -7 11 -15 11
-8 0 -15 5 -15 10 0 6 -7 10 -15 10 -8 0 -15 5 -15 11 0 5 -5 7 -10 4 -6 -3
-13 1 -16 9 -3 9 -10 13 -15 10 -5 -3 -12 2 -15 10 -3 9 -15 16 -25 16 -10 0
-19 4 -19 8 0 5 -16 16 -35 25 -20 9 -38 24 -41 32 -4 8 -10 15 -16 15 -5 0
-6 -5 -2 -12 4 -7 3 -8 -4 -4 -7 4 -12 14 -12 22 0 8 -4 12 -10 9 -5 -3 -10
-1 -10 4 0 6 -7 11 -15 11 -8 0 -15 5 -15 11 0 5 -4 7 -10 4 -5 -3 -10 -1 -10
5 0 6 -5 8 -10 5 -6 -4 -9 -1 -8 7 2 7 -3 12 -9 10 -7 -1 -13 5 -13 14 0 8 -4
13 -9 9 -5 -3 -21 6 -35 20 -14 14 -26 23 -26 20 0 -6 -17 7 -54 42 -13 12
-27 19 -30 16 -3 -3 -8 2 -12 11 -3 9 -11 16 -16 16 -6 0 -22 13 -38 30 -15
16 -30 27 -33 23 -4 -3 -9 2 -13 11 -3 9 -12 16 -20 16 -8 0 -14 7 -14 15 0 8
-3 14 -7 14 -21 -3 -33 2 -31 14 2 6 -3 11 -9 9 -12 -2 -17 11 -14 31 1 5 -3
6 -8 3 -5 -4 -28 12 -51 34 -22 22 -43 40 -46 40 -3 0 -23 18 -44 40 -20 21
-40 36 -44 33 -3 -4 -6 -1 -6 6 0 16 -66 81 -74 73 -3 -3 -6 2 -6 10 0 9 -7
19 -16 22 -8 3 -12 11 -8 17 4 7 3 9 -3 6 -11 -7 -99 90 -95 105 1 5 -1 7 -6
4 -5 -3 -14 4 -22 14 -8 10 -18 16 -23 13 -6 -3 -7 -2 -4 4 3 5 -3 17 -14 26
-11 10 -17 22 -14 27 3 6 -1 10 -10 10 -8 0 -19 8 -22 18 -4 9 -18 30 -32 45
-15 16 -36 39 -48 53 -13 14 -17 24 -10 25 7 0 2 5 -10 11 -13 6 -23 17 -23
25 0 7 -4 13 -10 13 -5 0 -10 7 -10 15 0 8 -4 15 -8 15 -5 0 -15 12 -23 28 -7
15 -20 35 -29 44 -32 36 -40 47 -40 58 0 5 -4 10 -10 10 -5 0 -10 7 -10 15 0
9 -9 25 -20 37 -11 12 -20 28 -20 35 0 7 -4 13 -10 13 -5 0 -10 7 -10 15 0 8
-4 15 -10 15 -5 0 -10 6 -10 13 0 6 -9 23 -20 37 -11 14 -20 33 -20 43 0 10
-4 15 -10 12 -5 -3 -10 2 -10 12 0 10 -9 29 -20 43 -11 14 -20 33 -20 42 0 9
-3 18 -7 20 -8 3 -40 67 -65 126 -7 17 -17 32 -21 32 -5 0 -6 4 -2 9 3 5 1 12
-5 16 -6 4 -8 11 -5 16 4 5 1 9 -4 9 -6 0 -11 9 -11 20 0 11 -5 20 -11 20 -5
0 -8 4 -5 8 3 5 -2 21 -10 36 -7 16 -14 33 -14 40 0 6 -13 37 -29 69 -15 32
-24 60 -19 63 5 3 3 13 -4 21 -6 8 -13 22 -15 31 -1 9 -6 18 -12 20 -5 2 -7
10 -4 18 3 8 1 14 -4 14 -8 0 -12 16 -14 63 0 9 -5 17 -10 17 -6 0 -7 5 -4 10
3 6 0 10 -7 11 -10 0 -11 2 0 6 9 4 10 8 2 18 -6 8 -12 25 -14 39 -1 13 -9 33
-17 42 -12 15 -12 17 0 9 11 -6 12 -5 5 6 -9 15 -13 29 -19 74 -2 17 -5 32 -6
35 -1 3 -1 8 0 13 0 4 -3 7 -8 7 -4 0 -7 11 -6 25 2 14 0 25 -4 25 -7 0 -9 10
-13 73 -2 20 -7 37 -12 37 -4 0 -6 9 -3 20 3 11 1 23 -4 26 -5 3 -4 14 2 26 8
15 8 19 0 14 -6 -4 -11 -5 -11 -2 0 2 -3 12 -7 22 -5 13 -3 15 8 9 11 -7 12
-6 3 6 -10 14 -15 44 -17 107 -1 17 -4 32 -7 32 -5 0 -7 26 -13 155 -1 22 -6
43 -12 47 -6 5 -5 8 4 8 11 0 11 3 1 15 -9 11 -9 15 -1 15 7 0 9 5 4 13 -4 6
-9 68 -10 137 -1 69 -2 127 -3 130 -1 3 -1 23 0 45 1 22 3 83 4 135 1 52 5
101 10 108 4 7 2 12 -5 12 -8 0 -8 4 2 16 10 13 10 17 -2 25 -8 5 -9 9 -4 9 6
0 11 19 12 43 3 80 11 152 19 171 5 14 4 17 -5 11 -10 -6 -11 -3 -2 13 9 18
16 62 20 135 1 11 6 15 12 11 8 -4 8 -1 1 13 -6 11 -7 25 -2 33 4 7 6 24 4 37
-2 12 0 23 6 23 6 0 8 11 4 26 -4 16 -3 25 2 21 5 -3 9 10 8 29 -1 19 1 34 5
34 4 0 8 11 9 25 4 54 5 60 15 73 6 8 5 12 -4 12 -10 0 -10 3 -1 12 7 7 12 22
12 35 0 13 6 23 13 24 9 0 9 2 -1 6 -6 2 -9 10 -5 16 4 7 8 17 9 22 10 49 13
60 15 60 2 0 4 16 12 65 2 14 6 30 9 35 13 23 38 126 33 135 -4 6 0 13 9 16 8
3 12 12 10 19 -3 7 -1 16 5 19 6 4 8 13 4 21 -3 8 0 15 7 15 6 0 8 5 5 10 -4
6 -2 16 3 23 6 7 10 15 10 20 0 24 27 107 35 107 5 0 7 6 4 14 -3 8 -3 17 1
21 4 4 7 10 8 13 0 4 4 15 8 24 4 9 9 22 10 30 2 7 8 24 13 38 6 14 9 28 6 33
-2 4 1 7 6 7 6 0 11 8 11 18 0 10 3 22 8 26 4 4 8 12 8 17 1 5 3 11 4 14 3 6
5 12 15 43 4 12 12 22 17 22 5 0 6 4 3 10 -3 5 4 28 15 50 11 22 18 45 15 50
-3 6 -1 10 5 10 6 0 8 5 5 10 -3 6 -2 10 4 10 5 0 13 10 16 23 8 26 20 54 74
169 23 48 41 92 41 98 0 5 5 10 11 10 6 0 8 7 5 16 -4 10 -2 13 6 8 8 -5 9 -2
5 9 -3 10 -3 17 2 17 7 0 26 33 30 55 1 6 10 18 18 28 9 9 12 17 7 17 -5 0 -3
4 4 9 7 4 14 17 15 29 0 11 5 18 9 16 4 -3 10 7 14 21 3 14 10 25 16 25 5 0 6
5 3 10 -3 6 1 13 10 16 9 4 14 13 11 20 -3 8 0 14 6 14 6 0 9 3 5 6 -3 4 1 13
9 21 8 8 11 19 8 25 -4 7 -2 8 4 4 7 -4 12 -1 12 8 0 9 5 16 11 16 5 0 8 4 4
9 -3 6 2 14 11 19 9 5 15 11 13 13 -5 9 13 49 22 49 5 0 16 18 25 40 9 22 19
38 23 36 4 -3 8 5 8 17 1 11 9 25 18 29 8 5 22 25 30 44 8 18 19 34 25 34 6 0
9 4 5 9 -3 5 2 16 10 24 8 9 15 20 15 26 0 6 9 15 20 21 11 6 18 15 15 21 -4
5 -1 9 5 9 6 0 8 5 5 10 -3 6 -1 10 6 10 7 0 9 3 6 6 -4 4 6 18 21 32 15 13
20 21 12 16 -8 -4 -4 4 10 19 14 14 25 31 25 36 0 6 5 11 10 12 10 0 29 38 26
52 -1 5 2 6 6 4 5 -3 14 1 21 9 7 8 10 14 7 14 -4 0 0 6 7 14 7 8 22 26 33 42
11 15 28 36 38 46 9 10 14 18 11 18 -3 0 1 6 8 14 7 8 24 28 38 46 14 18 34
41 44 51 11 11 17 19 13 19 -4 0 6 14 23 30 17 17 28 30 26 30 -3 0 8 14 24
30 17 17 30 35 30 40 0 6 6 9 13 8 6 -2 11 5 11 15 -2 16 8 22 29 18 5 -1 6 3
2 9 -3 5 -1 10 6 10 7 0 10 3 7 6 -6 5 32 50 125 145 26 27 47 54 47 60 0 5 4
8 9 5 5 -3 17 7 27 22 23 36 40 52 47 46 3 -3 8 4 12 15 3 12 10 19 15 16 5
-3 11 4 15 14 3 11 15 23 26 26 12 4 18 13 15 20 -3 9 0 12 10 8 9 -3 14 0 12
8 -2 8 4 13 14 13 10 -1 17 1 16 5 -2 20 4 31 18 31 8 0 13 4 10 8 -3 5 6 15
19 22 14 7 25 19 25 27 0 7 7 13 15 13 8 0 15 4 15 9 0 5 9 12 20 16 11 3 19
9 17 13 -1 4 8 17 21 30 12 12 22 20 22 17 0 -3 15 10 32 30 18 19 38 35 44
35 6 0 17 11 24 25 7 14 16 23 18 20 3 -2 13 5 23 17 11 11 19 18 19 15 0 -4
14 7 30 25 17 17 30 27 30 22 0 -5 7 2 16 14 8 12 20 19 26 16 6 -4 8 -2 5 3
-4 6 9 21 28 34 19 13 35 27 35 32 0 4 5 7 10 7 6 0 22 12 35 26 14 15 25 24
25 20 0 -4 11 3 25 16 36 34 54 48 60 48 3 0 17 12 30 26 14 15 25 24 25 21 0
-4 12 3 26 16 14 12 29 22 32 22 4 0 17 11 30 25 13 14 21 18 17 10 -4 -10 -1
-9 7 2 9 13 14 14 20 5 4 -7 3 -13 -1 -15z"/>
<path d="M16072 4632 c-7 -9 -10 -12 -8 -6 3 7 -6 11 -23 10 -16 -1 -27 -4
-25 -7 2 -4 -3 -10 -12 -13 -10 -4 -13 -2 -8 7 5 9 4 9 -7 0 -7 -7 -21 -13
-31 -13 -10 0 -18 -4 -18 -9 0 -5 -13 -14 -30 -21 -16 -7 -30 -19 -30 -27 0
-8 -4 -11 -10 -8 -5 3 -10 1 -10 -6 0 -7 -3 -9 -7 -6 -7 8 -59 -73 -55 -85 1
-5 -3 -8 -9 -8 -6 0 -9 -9 -6 -20 3 -11 1 -18 -4 -14 -5 3 -9 -6 -9 -19 0 -13
-3 -27 -7 -30 -9 -10 -10 -58 -1 -63 5 -3 4 -14 -2 -24 -5 -10 -6 -20 -1 -22
7 -2 14 -30 21 -86 0 -2 4 0 10 3 5 3 7 0 5 -7 -3 -8 4 -24 15 -36 11 -12 20
-24 20 -27 -1 -22 1 -28 6 -23 6 7 49 -34 57 -54 4 -10 6 -9 6 2 1 9 9 3 21
-15 11 -16 20 -27 20 -23 0 7 26 -14 81 -64 10 -10 19 -15 19 -11 0 4 7 -3 16
-15 8 -12 22 -22 30 -22 8 0 13 -3 11 -7 -3 -5 1 -14 9 -21 8 -7 14 -9 14 -5
0 4 5 0 11 -9 5 -10 15 -18 20 -18 15 0 39 -26 31 -34 -3 -4 1 -4 11 0 15 6
22 -4 18 -28 0 -4 8 -5 19 -3 12 2 20 -2 20 -10 0 -8 5 -17 12 -21 7 -5 9 -2
4 7 -5 8 5 -1 22 -18 16 -18 32 -30 35 -26 4 3 9 -2 13 -11 3 -9 10 -13 16
-10 5 3 12 -3 15 -15 3 -12 10 -21 15 -21 5 0 6 6 3 13 -4 6 4 0 17 -15 13
-16 29 -28 36 -28 7 0 12 -4 12 -10 0 -5 6 -10 13 -10 6 0 32 -18 57 -40 24
-22 50 -40 58 -40 8 0 10 -5 6 -12 -5 -8 -2 -8 10 1 9 8 16 10 15 5 -4 -21 2
-33 19 -38 9 -3 30 -17 45 -32 17 -15 34 -23 44 -20 14 6 14 4 2 -11 -9 -11
-10 -14 -1 -9 7 4 15 1 18 -8 3 -9 10 -16 15 -16 18 0 68 -43 62 -53 -4 -6 -1
-7 6 -2 14 8 54 -29 43 -41 -4 -4 -2 -4 5 0 6 3 14 2 18 -4 4 -6 11 -8 16 -5
5 4 9 1 9 -5 0 -6 -7 -13 -15 -16 -8 -4 -12 -11 -8 -18 3 -6 2 -8 -2 -3 -5 4
-17 -1 -28 -10 -10 -10 -22 -18 -26 -18 -3 0 -5 -3 -4 -7 2 -4 -4 -5 -12 -2
-8 4 -15 1 -15 -6 0 -6 -4 -9 -9 -5 -6 3 -14 -3 -20 -12 -8 -14 -11 -15 -11
-3 0 12 -3 11 -11 -2 -5 -10 -17 -18 -24 -18 -8 0 -15 -5 -15 -11 0 -5 -4 -7
-10 -4 -5 3 -10 1 -10 -4 0 -6 -9 -11 -19 -11 -10 0 -22 -7 -25 -16 -3 -8 -10
-13 -15 -10 -5 4 -16 0 -24 -8 -8 -8 -17 -12 -21 -9 -3 4 -6 1 -6 -6 0 -7 -4
-10 -9 -7 -5 4 -11 1 -13 -4 -2 -6 -12 -13 -23 -14 -11 -2 -19 -9 -18 -14 2
-6 -4 -9 -12 -6 -8 4 -15 1 -15 -5 0 -6 -6 -10 -12 -9 -7 2 -12 -3 -10 -10 1
-8 -2 -11 -8 -7 -6 4 -17 1 -25 -5 -8 -6 -19 -9 -25 -5 -6 4 -9 1 -8 -7 2 -8
-6 -13 -19 -12 -12 0 -20 -3 -18 -7 6 -9 -24 -21 -36 -14 -5 4 -6 -2 -2 -11 4
-12 3 -15 -5 -10 -6 4 -20 -2 -30 -12 -10 -10 -24 -16 -30 -14 -7 2 -15 -3
-18 -12 -3 -8 -12 -12 -20 -9 -8 3 -14 0 -14 -6 0 -6 -8 -11 -18 -11 -10 0
-28 -9 -41 -21 -12 -12 -28 -22 -34 -24 -40 -10 -56 -18 -51 -26 3 -5 -4 -9
-15 -9 -12 0 -21 -4 -21 -9 0 -5 -11 -12 -25 -15 -14 -4 -25 -11 -25 -17 0 -8
-5 -7 -15 1 -13 11 -14 10 -8 -6 6 -17 5 -18 -11 -5 -14 12 -17 12 -14 1 2 -8
-15 -22 -37 -33 -22 -11 -41 -23 -43 -28 -2 -5 -9 -9 -16 -9 -7 0 -22 -13 -34
-30 -13 -16 -26 -29 -30 -27 -4 1 -9 -2 -10 -8 -6 -18 -24 -35 -31 -30 -4 2
-7 -6 -7 -18 1 -12 -4 -21 -11 -20 -7 2 -10 -4 -7 -12 4 -9 2 -21 -4 -28 -9
-12 -10 -18 -13 -82 0 -22 -5 -32 -12 -28 -6 4 -7 1 -1 -8 4 -8 10 -23 11 -34
6 -44 26 -105 35 -105 5 0 6 -5 3 -10 -3 -6 1 -13 10 -16 13 -6 14 -8 3 -15
-8 -5 -9 -9 -2 -9 7 0 30 -18 52 -40 22 -22 45 -40 51 -40 6 0 11 -4 11 -10 0
-5 7 -10 16 -10 9 0 12 -5 8 -12 -5 -9 -2 -9 9 1 11 9 17 10 17 2 0 -6 9 -11
20 -11 11 0 20 -5 20 -11 0 -8 5 -8 15 1 11 9 15 9 15 1 0 -8 11 -10 30 -7 16
2 33 0 36 -6 3 -5 15 -2 27 9 14 12 18 13 12 3 -7 -12 -6 -13 6 -4 8 5 21 10
29 9 8 0 20 6 27 15 11 13 12 13 13 0 1 -13 2 -13 13 1 13 17 14 17 47 26 11
3 20 9 20 13 0 4 11 11 25 14 14 4 25 10 25 15 0 4 11 7 24 6 18 -2 23 1 19
11 -3 8 -2 14 3 13 21 -4 35 2 29 11 -4 6 -3 9 2 8 13 -4 73 23 73 34 0 5 4 7
9 4 5 -4 11 -1 13 4 2 6 13 12 25 13 12 0 19 5 17 9 -3 4 0 9 5 9 6 1 17 2 24
3 6 1 11 8 9 16 -3 11 -1 11 13 0 14 -11 16 -11 13 1 -2 8 3 13 10 11 6 -1 12
3 12 10 0 6 3 8 7 5 3 -4 18 3 31 15 14 13 22 16 17 8 -5 -8 3 -5 17 8 13 12
28 19 31 15 4 -3 7 -1 7 5 0 7 9 12 19 12 11 0 21 4 23 9 2 5 10 11 18 13 8 2
20 10 27 18 9 11 12 12 13 2 0 -7 5 -10 10 -7 6 4 8 11 5 16 -4 5 1 9 9 9 8 0
22 7 30 16 12 12 16 12 16 2 0 -8 4 -7 11 5 5 9 16 17 24 17 7 0 15 3 17 8 2
4 28 20 58 35 86 44 135 71 140 78 3 4 15 9 28 13 13 5 20 12 15 19 -4 7 2 5
12 -3 11 -9 16 -10 11 -2 -4 7 -1 12 9 12 9 0 13 5 10 10 -5 9 15 15 38 11 4
0 7 6 7 15 0 8 5 12 10 9 6 -3 10 -1 10 5 0 6 4 9 9 5 6 -3 35 15 65 40 31 25
59 45 64 45 5 0 19 11 32 25 12 13 27 22 31 19 5 -3 9 1 9 9 0 8 15 24 33 36
17 11 29 21 25 21 -5 0 2 10 15 23 12 12 25 21 29 20 4 -2 5 4 2 12 -4 8 1 17
10 21 9 3 13 10 10 15 -3 5 0 9 6 9 7 0 9 7 6 16 -3 9 -2 12 4 9 6 -4 13 7 16
24 4 17 11 31 16 31 6 0 8 6 5 14 -3 8 -3 17 1 20 8 9 13 34 15 73 1 18 5 33
8 33 12 0 -9 152 -24 178 -5 6 -5 12 -1 12 4 0 -1 10 -12 22 -10 12 -13 18 -6
14 6 -4 12 -2 12 3 0 6 -4 11 -10 11 -5 0 -10 6 -10 13 0 8 -9 24 -20 37 -11
12 -17 27 -14 31 3 5 0 9 -5 9 -6 0 -11 7 -11 15 0 9 -7 18 -15 21 -8 4 -15
12 -15 20 0 8 -7 14 -16 14 -8 0 -12 5 -9 10 3 6 -1 10 -10 10 -9 0 -14 4 -11
8 3 5 -4 14 -14 22 -10 8 -17 17 -14 22 3 4 1 8 -4 8 -6 0 -24 14 -42 30 -18
17 -36 30 -41 30 -5 0 -9 7 -9 15 0 14 -12 19 -32 16 -8 -1 -12 15 -9 32 1 5
-3 6 -9 2 -5 -3 -10 -1 -10 4 0 6 -7 11 -15 11 -8 0 -15 5 -15 10 0 6 -7 10
-16 10 -8 0 -12 5 -9 10 3 6 -1 10 -9 10 -9 0 -16 7 -16 16 0 8 -4 12 -10 9
-5 -3 -17 3 -27 15 -10 11 -21 20 -26 20 -5 0 -22 14 -37 30 -19 20 -30 26
-33 18 -4 -9 -6 -8 -6 2 -1 9 -16 24 -35 34 -19 10 -37 25 -40 33 -3 8 -10 11
-16 8 -5 -3 -10 -1 -10 4 0 6 -7 11 -16 11 -8 0 -13 4 -9 9 3 5 -4 12 -15 16
-11 4 -31 17 -44 30 -13 13 -27 21 -30 18 -3 -4 -6 -1 -6 5 0 6 -25 27 -55 47
-30 19 -55 39 -55 45 0 5 -6 10 -12 10 -7 0 -25 10 -40 23 -60 51 -68 57 -74
57 -3 0 -19 12 -34 28 -47 43 -57 51 -64 45 -3 -4 -6 1 -6 11 0 9 -4 14 -10
11 -5 -3 -10 2 -10 12 0 15 -2 16 -10 3 -7 -11 -10 -12 -10 -2 0 16 -39 51
-57 52 -7 0 -12 3 -10 8 1 4 -1 7 -5 7 -4 0 -15 10 -23 23 -9 12 -21 22 -26
22 -14 0 -39 26 -39 40 0 6 -4 9 -9 5 -5 -3 -17 5 -25 17 -9 12 -16 17 -16 10
0 -10 -3 -10 -14 0 -8 7 -11 18 -8 23 3 6 2 7 -3 3 -4 -4 -15 -2 -23 5 -13 10
-14 9 -7 -3 8 -13 7 -13 -8 -1 -9 7 -17 10 -17 5 0 -5 -5 -1 -11 9 -8 14 -14
16 -25 6 -10 -8 -14 -8 -14 -1 0 7 -7 9 -17 5 -12 -5 -14 -3 -8 8 8 12 6 12
-9 0 -13 -11 -19 -12 -25 -3 -4 8 -10 6 -19 -6z"/>
</g>
</svg>
